<svg width="27" height="27" viewBox="0 0 27 27" fill="none" xmlns="http://www.w3.org/2000/svg">
<path d="M4 0C1.78401 0 0 1.78397 0 3.99998V22.6666C0 24.8826 1.78401 26.6666 4 26.6666H22.6667C24.8827 26.6666 26.6667 24.8826 26.6667 22.6666V3.99998C26.6667 1.78397 24.8827 0 22.6667 0H4ZM13.3281 2.66663C19.2134 2.66663 24 7.44279 24 13.3281C24 19.2132 19.2134 24 13.3281 24C7.44286 24 2.66667 19.2132 2.66667 13.3281C2.66667 7.44279 7.44286 2.66663 13.3281 2.66663ZM13.3255 6.93486C13.0441 6.93599 12.7745 7.04831 12.5755 7.24732C12.3765 7.44634 12.2642 7.71594 12.263 7.99739C12.2621 8.28019 12.3735 8.55176 12.5727 8.75246C12.7719 8.95316 13.0427 9.06656 13.3255 9.06769C13.4662 9.06816 13.6056 9.0408 13.7357 8.98718C13.8657 8.93356 13.9839 8.85471 14.0834 8.75523C14.1829 8.65575 14.2617 8.53758 14.3153 8.40751C14.3689 8.27744 14.3963 8.13808 14.3958 7.99739C14.3947 7.71459 14.2813 7.44379 14.0806 7.24455C13.8799 7.04532 13.6083 6.93392 13.3255 6.93486ZM13.3255 10.1302C13.0441 10.1313 12.7745 10.2436 12.5755 10.4426C12.3765 10.6417 12.2642 10.9112 12.263 11.1927V18.6666C12.2642 18.9481 12.3765 19.2177 12.5755 19.4167C12.7745 19.6157 13.0441 19.728 13.3255 19.7291C13.6083 19.7301 13.8799 19.6187 14.0806 19.4194C14.2813 19.2202 14.3947 18.9494 14.3958 18.6666V11.1927C14.3947 10.9099 14.2813 10.6391 14.0806 10.4399C13.8799 10.2406 13.6083 10.1292 13.3255 10.1302Z" fill="#77B84D"/>
</svg>
