<svg width="27" height="27" viewBox="0 0 27 27" fill="none" xmlns="http://www.w3.org/2000/svg">
<circle cx="13.5" cy="13.5" r="13.5" fill="#FF403A"/>
<path d="M8.29101 12.9448C8.03213 12.9456 7.77875 13.0196 7.56018 13.1583C7.3416 13.297 7.16677 13.4948 7.05591 13.7287C6.94504 13.9627 6.90268 14.2232 6.93372 14.4802C6.96476 14.7373 7.06793 14.9802 7.23129 15.1811L10.7139 19.4472C10.8381 19.6014 10.9972 19.7237 11.1782 19.8041C11.3591 19.8844 11.5566 19.9204 11.7543 19.909C12.177 19.8863 12.5586 19.6602 12.8019 19.2884L20.0362 7.63767C20.0373 7.63574 20.0386 7.63381 20.0399 7.6319C20.1077 7.52768 20.0857 7.32114 19.9456 7.19139C19.9071 7.15576 19.8617 7.12839 19.8123 7.11096C19.7628 7.09352 19.7103 7.0864 19.658 7.09003C19.6057 7.09366 19.5546 7.10796 19.508 7.13206C19.4615 7.15615 19.4203 7.18953 19.3871 7.23013C19.3845 7.23333 19.3818 7.23647 19.3791 7.23957L12.0832 15.4828C12.0555 15.5141 12.0218 15.5397 11.9841 15.5579C11.9463 15.5761 11.9054 15.5867 11.8635 15.5889C11.8217 15.5912 11.7799 15.5851 11.7404 15.5711C11.7009 15.557 11.6647 15.5353 11.6337 15.5071L9.21233 13.3036C8.96085 13.0731 8.63217 12.9451 8.29101 12.9448Z" fill="white"/>
</svg>
