<svg width="27" height="27" viewBox="0 0 27 27" fill="none" xmlns="http://www.w3.org/2000/svg">
<circle cx="13.5" cy="13.5" r="13.5" fill="#427EF3"/>
<path d="M8.29101 12.9451C8.03213 12.9458 7.77875 13.0198 7.56018 13.1585C7.3416 13.2973 7.16677 13.495 7.05591 13.729C6.94504 13.9629 6.90268 14.2235 6.93372 14.4805C6.96476 14.7375 7.06793 14.9805 7.23129 15.1813L10.7139 19.4475C10.8381 19.6017 10.9972 19.724 11.1782 19.8043C11.3591 19.8846 11.5566 19.9206 11.7543 19.9093C12.177 19.8866 12.5586 19.6604 12.8019 19.2886L20.0362 7.63792C20.0373 7.63598 20.0386 7.63405 20.0399 7.63215C20.1077 7.52793 20.0857 7.32139 19.9456 7.19164C19.9071 7.15601 19.8617 7.12863 19.8123 7.1112C19.7628 7.09377 19.7103 7.08665 19.658 7.09028C19.6057 7.09391 19.5546 7.10821 19.508 7.1323C19.4615 7.1564 19.4203 7.18977 19.3871 7.23038C19.3845 7.23357 19.3818 7.23671 19.3791 7.23981L12.0832 15.483C12.0555 15.5144 12.0218 15.5399 11.9841 15.5581C11.9463 15.5764 11.9054 15.5869 11.8635 15.5892C11.8217 15.5914 11.7799 15.5854 11.7404 15.5713C11.7009 15.5573 11.6647 15.5355 11.6337 15.5073L9.21233 13.3039C8.96085 13.0734 8.63217 12.9454 8.29101 12.9451Z" fill="white"/>
</svg>
