<svg width="40" height="40" viewBox="0 0 40 40" fill="none" xmlns="http://www.w3.org/2000/svg">
<path d="M37.0611 24.6056L34.3666 21.9167C35.45 20.65 36.1111 19.0111 36.1111 17.2222C36.1111 13.2389 32.8722 10 28.8888 10C24.9055 10 21.6666 13.2389 21.6666 17.2222C21.6666 21.2056 24.9055 24.4444 28.8888 24.4444C30.6777 24.4444 32.3166 23.7833 33.5833 22.7L36.2722 25.3944C36.3833 25.5 36.5222 25.5556 36.6666 25.5556C36.8111 25.5556 36.95 25.5 37.0611 25.3944C37.2777 25.1778 37.2777 24.8222 37.0611 24.6056ZM25.4333 20.0056C25.6222 20.2444 25.5888 20.5944 25.35 20.7889C25.2444 20.8722 25.1222 20.9111 25 20.9111C24.8388 20.9111 24.6777 20.8389 24.5666 20.7056C23.7722 19.7222 23.3333 18.4889 23.3333 17.2222C23.3333 14.6111 25.1111 12.3778 27.6555 11.8C27.95 11.7333 28.25 11.9222 28.3222 12.2222C28.3888 12.5222 28.2 12.8167 27.9 12.8833C25.9 13.3389 24.4444 15.1667 24.4444 17.2222C24.4444 18.2333 24.7944 19.2222 25.4333 20.0056ZM30.1166 22.6444C29.7111 22.7333 29.2944 22.7778 28.8888 22.7778C28.0333 22.7778 27.1777 22.5778 26.4166 22.1944C26.1444 22.0611 26.0333 21.7278 26.1722 21.45C26.3055 21.1778 26.6388 21.0667 26.9166 21.2056C27.8111 21.65 28.8555 21.7833 29.8833 21.5556C30.1833 21.4944 30.4777 21.6833 30.5444 21.9833C30.6055 22.2833 30.4166 22.5778 30.1166 22.6444ZM33.6 19.4444C33.5388 19.4444 33.4722 19.4333 33.4111 19.4111C33.1222 19.3056 32.9722 18.9889 33.0777 18.7C33.25 18.2278 33.3333 17.7333 33.3333 17.2222C33.3333 15.5222 32.3888 14 30.8666 13.2444C30.5888 13.1056 30.4777 12.7722 30.6111 12.5C30.75 12.2222 31.0833 12.1111 31.3555 12.2444C33.2611 13.1944 34.4444 15.1 34.4444 17.2222C34.4444 17.8611 34.3388 18.4889 34.1222 19.0778C34.0388 19.3056 33.8277 19.4444 33.6 19.4444Z" fill="white"/>
<path d="M28.8888 8.88873C29.4611 8.88873 30.0166 8.94428 30.5555 9.05539V4.44428C30.5555 2.91095 29.3111 1.6665 27.7777 1.6665H4.4444C2.91107 1.6665 1.66663 2.91095 1.66663 4.44428V35.5554C1.66663 37.0887 2.91107 38.3332 4.4444 38.3332H27.7777C29.3111 38.3332 30.5555 37.0887 30.5555 35.5554V25.3832C30.0111 25.4998 29.45 25.5554 28.8888 25.5554C24.2944 25.5554 20.5555 21.8165 20.5555 17.2221C20.5555 12.6276 24.2944 8.88873 28.8888 8.88873ZM12.7777 34.4443H8.33329C8.02774 34.4443 7.77774 34.1943 7.77774 33.8887C7.77774 33.5832 8.02774 33.3332 8.33329 33.3332H12.7777C13.0833 33.3332 13.3333 33.5832 13.3333 33.8887C13.3333 34.1943 13.0833 34.4443 12.7777 34.4443ZM15 34.4443H14.4444C14.1388 34.4443 13.8888 34.1943 13.8888 33.8887C13.8888 33.5832 14.1388 33.3332 14.4444 33.3332H15C15.3055 33.3332 15.5555 33.5832 15.5555 33.8887C15.5555 34.1943 15.3055 34.4443 15 34.4443ZM17.2222 32.7776H7.22218C6.91663 32.7776 6.66663 32.5276 6.66663 32.2221C6.66663 31.9165 6.91663 31.6665 7.22218 31.6665H17.2222C17.5277 31.6665 17.7777 31.9165 17.7777 32.2221C17.7777 32.5276 17.5277 32.7776 17.2222 32.7776ZM15 27.7776C15.3055 27.7776 15.5555 28.0276 15.5555 28.3332C15.5555 28.6387 15.3055 28.8887 15 28.8887H11.6666C11.3611 28.8887 11.1111 28.6387 11.1111 28.3332C11.1111 28.0276 11.3611 27.7776 11.6666 27.7776H15ZM12.7777 26.6665C12.7777 26.361 13.0277 26.111 13.3333 26.111H15C15.3055 26.111 15.5555 26.361 15.5555 26.6665C15.5555 26.9721 15.3055 27.2221 15 27.2221H13.3333C13.0277 27.2221 12.7777 26.9721 12.7777 26.6665ZM11.6666 27.2221H8.33329C8.02774 27.2221 7.77774 26.9721 7.77774 26.6665C7.77774 26.361 8.02774 26.111 8.33329 26.111H11.6666C11.9722 26.111 12.2222 26.361 12.2222 26.6665C12.2222 26.9721 11.9722 27.2221 11.6666 27.2221ZM8.33329 27.7776H9.4444C9.74996 27.7776 9.99996 28.0276 9.99996 28.3332C9.99996 28.6387 9.74996 28.8887 9.4444 28.8887H8.33329C8.02774 28.8887 7.77774 28.6387 7.77774 28.3332C7.77774 28.0276 8.02774 27.7776 8.33329 27.7776ZM17.2222 25.5554H7.22218C6.91663 25.5554 6.66663 25.3054 6.66663 24.9998C6.66663 24.6943 6.91663 24.4443 7.22218 24.4443H17.2222C17.5277 24.4443 17.7777 24.6943 17.7777 24.9998C17.7777 25.3054 17.5277 25.5554 17.2222 25.5554ZM8.88885 20.5554H12.2222C12.5277 20.5554 12.7777 20.8054 12.7777 21.1109C12.7777 21.4165 12.5277 21.6665 12.2222 21.6665H8.88885C8.58329 21.6665 8.33329 21.4165 8.33329 21.1109C8.33329 20.8054 8.58329 20.5554 8.88885 20.5554ZM8.33329 19.4443C8.33329 19.1387 8.58329 18.8887 8.88885 18.8887H12.2222C12.5277 18.8887 12.7777 19.1387 12.7777 19.4443C12.7777 19.7498 12.5277 19.9998 12.2222 19.9998H8.88885C8.58329 19.9998 8.33329 19.7498 8.33329 19.4443ZM15.5555 19.9998H13.8888C13.5833 19.9998 13.3333 19.7498 13.3333 19.4443C13.3333 19.1387 13.5833 18.8887 13.8888 18.8887H15.5555C15.8611 18.8887 16.1111 19.1387 16.1111 19.4443C16.1111 19.7498 15.8611 19.9998 15.5555 19.9998ZM16.1111 21.1109C16.1111 21.4165 15.8611 21.6665 15.5555 21.6665H14.4444C14.1388 21.6665 13.8888 21.4165 13.8888 21.1109C13.8888 20.8054 14.1388 20.5554 14.4444 20.5554H15.5555C15.8611 20.5554 16.1111 20.8054 16.1111 21.1109ZM17.7777 18.3332H7.77774C7.47218 18.3332 7.22218 18.0832 7.22218 17.7776C7.22218 17.4721 7.47218 17.2221 7.77774 17.2221H17.7777C18.0833 17.2221 18.3333 17.4721 18.3333 17.7776C18.3333 18.0832 18.0833 18.3332 17.7777 18.3332ZM15.5555 13.8887C15.8611 13.8887 16.1111 14.1387 16.1111 14.4443C16.1111 14.7498 15.8611 14.9998 15.5555 14.9998H13.3333C13.0277 14.9998 12.7777 14.7498 12.7777 14.4443C12.7777 14.1387 13.0277 13.8887 13.3333 13.8887H15.5555ZM14.4444 12.7776C14.4444 12.4721 14.6944 12.2221 15 12.2221H15.5555C15.8611 12.2221 16.1111 12.4721 16.1111 12.7776C16.1111 13.0832 15.8611 13.3332 15.5555 13.3332H15C14.6944 13.3332 14.4444 13.0832 14.4444 12.7776ZM13.3333 13.3332H8.88885C8.58329 13.3332 8.33329 13.0832 8.33329 12.7776C8.33329 12.4721 8.58329 12.2221 8.88885 12.2221H13.3333C13.6388 12.2221 13.8888 12.4721 13.8888 12.7776C13.8888 13.0832 13.6388 13.3332 13.3333 13.3332ZM8.88885 13.8887H11.1111C11.4166 13.8887 11.6666 14.1387 11.6666 14.4443C11.6666 14.7498 11.4166 14.9998 11.1111 14.9998H8.88885C8.58329 14.9998 8.33329 14.7498 8.33329 14.4443C8.33329 14.1387 8.58329 13.8887 8.88885 13.8887ZM17.7777 11.6665H7.77774C7.47218 11.6665 7.22218 11.4165 7.22218 11.1109C7.22218 10.8054 7.47218 10.5554 7.77774 10.5554H17.7777C18.0833 10.5554 18.3333 10.8054 18.3333 11.1109C18.3333 11.4165 18.0833 11.6665 17.7777 11.6665ZM21.6666 8.33317H6.11107C5.1944 8.33317 4.4444 7.58317 4.4444 6.6665C4.4444 5.74984 5.1944 4.99984 6.11107 4.99984H21.6666C22.5833 4.99984 23.3333 5.74984 23.3333 6.6665C23.3333 7.58317 22.5833 8.33317 21.6666 8.33317Z" fill="white"/>
</svg>
