<svg width="40" height="40" viewBox="0 0 40 40" fill="none" xmlns="http://www.w3.org/2000/svg">
<path d="M34.0831 19.6993C33.979 19.5906 33.8427 19.5181 33.6944 19.4924C33.546 19.4668 33.3933 19.4893 33.2587 19.5568C33.0088 19.6754 32.7368 19.7402 32.4603 19.7471C32.1838 19.754 31.9089 19.7027 31.6534 19.5967C31.3979 19.4907 31.1675 19.3322 30.9772 19.1315C30.7868 18.9309 30.6406 18.6925 30.5481 18.4318C30.4981 18.2904 30.4054 18.1679 30.2829 18.0813C30.1604 17.9947 30.0141 17.9482 29.864 17.9482C29.714 17.9482 29.5677 17.9947 29.4452 18.0813C29.3227 18.1679 29.23 18.2904 29.18 18.4318C29.0875 18.6924 28.9413 18.9307 28.751 19.1313C28.5606 19.3319 28.3303 19.4904 28.0749 19.5964C27.8195 19.7024 27.5447 19.7537 27.2683 19.7469C26.9918 19.74 26.7199 19.6753 26.47 19.5568C26.3346 19.4914 26.1822 19.4697 26.0338 19.4947C25.8855 19.5197 25.7487 19.5901 25.6421 19.6963C25.5356 19.8025 25.4647 19.9391 25.4393 20.0873C25.4138 20.2356 25.435 20.388 25.5 20.5237C25.5723 20.6829 25.6232 20.8511 25.6512 21.0237C25.6712 21.0842 25.6815 21.1475 25.6819 21.2112C25.6819 21.2174 25.6781 21.2224 25.6781 21.2287C25.7142 21.6598 25.6059 22.0906 25.3704 22.4535C25.1348 22.8163 24.7853 23.0906 24.3769 23.2331C24.2357 23.2834 24.1136 23.3762 24.0272 23.4986C23.9409 23.6211 23.8945 23.7673 23.8945 23.9171C23.8945 24.067 23.9409 24.2132 24.0272 24.3356C24.1136 24.4581 24.2357 24.5509 24.3769 24.6012C24.6375 24.6939 24.8757 24.8402 25.0762 25.0307C25.2767 25.2212 25.435 25.4517 25.5409 25.7072C25.6468 25.9628 25.6978 26.2377 25.6908 26.5142C25.6837 26.7907 25.6187 27.0626 25.5 27.3124C25.4357 27.4478 25.4149 27.5998 25.4404 27.7475C25.466 27.8952 25.5366 28.0314 25.6426 28.1374C25.7485 28.2434 25.8847 28.314 26.0324 28.3395C26.1801 28.365 26.3321 28.3442 26.4675 28.2799C26.7174 28.1615 26.9893 28.0967 27.2658 28.0899C27.5422 28.0831 27.817 28.1343 28.0724 28.2404C28.3278 28.3464 28.5581 28.5048 28.7485 28.7054C28.9388 28.906 29.085 29.1443 29.1775 29.4049C29.2278 29.5461 29.3206 29.6682 29.443 29.7546C29.5655 29.8409 29.7117 29.8873 29.8615 29.8873C30.0114 29.8873 30.1576 29.8409 30.2801 29.7546C30.4025 29.6682 30.4953 29.5461 30.5456 29.4049C30.6381 29.1443 30.7843 28.906 30.9746 28.7054C31.165 28.5048 31.3953 28.3464 31.6507 28.2404C31.9061 28.1343 32.1809 28.0831 32.4573 28.0899C32.7338 28.0967 33.0057 28.1615 33.2556 28.2799C33.3911 28.3451 33.5435 28.3665 33.6917 28.3414C33.8399 28.3163 33.9767 28.2457 34.0831 28.1396C34.1896 28.0334 34.2604 27.8968 34.2859 27.7487C34.3115 27.6005 34.2904 27.4481 34.2256 27.3124C34.107 27.0625 34.0422 26.7905 34.0353 26.514C34.0285 26.2375 34.0797 25.9626 34.1857 25.7071C34.2918 25.4516 34.4502 25.2213 34.6509 25.0309C34.8515 24.8405 35.0899 24.6943 35.3506 24.6018C35.4918 24.5515 35.6139 24.4587 35.7002 24.3363C35.7866 24.2138 35.8329 24.0676 35.8329 23.9178C35.8329 23.7679 35.7866 23.6217 35.7002 23.4992C35.6139 23.3768 35.4918 23.284 35.3506 23.2337C35.0899 23.1413 34.8516 22.9952 34.6509 22.8048C34.4503 22.6145 34.2918 22.3842 34.1858 22.1287C34.0797 21.8733 34.0285 21.5985 34.0353 21.322C34.0422 21.0455 34.107 20.7735 34.2256 20.5237C34.2928 20.389 34.3152 20.2364 34.2896 20.0881C34.2639 19.9398 34.1916 19.8036 34.0831 19.6993ZM34.3606 23.9187C34.3607 24.8081 34.0971 25.6776 33.6031 26.4172C33.109 27.1568 32.4067 27.7333 31.585 28.0737C30.7634 28.4142 29.8592 28.5033 28.9868 28.3299C28.1145 28.1564 27.3131 27.7282 26.6842 27.0993C26.0552 26.4704 25.6269 25.6692 25.4533 24.7968C25.2797 23.9245 25.3688 23.0203 25.7091 22.1986C26.0494 21.3768 26.6258 20.6745 27.3653 20.1803C28.1049 19.6862 28.9743 19.4224 29.8637 19.4224C31.056 19.4233 32.1992 19.8972 33.0424 20.7402C33.8855 21.5832 34.3596 22.7264 34.3606 23.9187Z" fill="white"/>
<path d="M29.8637 20.6724C29.2218 20.6731 28.5946 20.8641 28.0612 21.2213C27.5279 21.5784 27.1124 22.0857 26.8672 22.6789C26.6221 23.2722 26.5584 23.9248 26.6841 24.5542C26.8097 25.1837 27.1192 25.7618 27.5733 26.2154C28.0275 26.669 28.6059 26.9778 29.2355 27.1028C29.8651 27.2277 30.5177 27.1632 31.1106 26.9174C31.7036 26.6716 32.2103 26.2555 32.5669 25.7217C32.9234 25.188 33.1137 24.5605 33.1137 23.9186C33.1127 23.0573 32.7699 22.2316 32.1605 21.6229C31.5511 21.0143 30.725 20.6724 29.8637 20.6724Z" fill="white"/>
<path d="M18.3313 2.5C16.7025 2.49938 15.1102 2.98179 13.7556 3.88622C12.4011 4.79065 11.3452 6.07647 10.7215 7.58105C10.0977 9.08563 9.93422 10.7414 10.2516 12.3389C10.569 13.9364 11.353 15.4039 12.5044 16.5559C13.6559 17.7078 15.1231 18.4923 16.7205 18.8103C18.3179 19.1283 19.9737 18.9654 21.4786 18.3422C22.9834 17.7191 24.2696 16.6637 25.1745 15.3095C26.0795 13.9553 26.5625 12.3631 26.5625 10.7344C26.56 8.55179 25.6921 6.45925 24.1491 4.91564C22.606 3.37202 20.5138 2.50331 18.3313 2.5ZM14.6088 6.54875C13.9686 7.08274 13.4549 7.75217 13.1049 8.50873C12.7548 9.2653 12.577 10.0901 12.5844 10.9238C12.646 11.983 13.032 12.9976 13.69 13.83C13.7918 13.9609 13.8374 14.1268 13.8168 14.2913C13.7963 14.4558 13.7112 14.6054 13.5803 14.7072C13.4494 14.809 13.2835 14.8546 13.119 14.834C12.9545 14.8134 12.8049 14.7284 12.7031 14.5975C11.8874 13.5625 11.4102 12.3014 11.3363 10.9856C11.3215 9.95847 11.5356 8.94091 11.9632 8.00686C12.3908 7.0728 13.021 6.2457 13.8081 5.58563C13.9355 5.47946 14.0999 5.42824 14.265 5.44324C14.4302 5.45825 14.5826 5.53824 14.6888 5.66563C14.7949 5.79301 14.8461 5.95736 14.8311 6.12251C14.8161 6.28766 14.7361 6.44008 14.6088 6.54625V6.54875Z" fill="white"/>
<path d="M34.3006 33.2711L34.9525 33.4861L33.0925 29.5386C32.965 29.5077 32.8409 29.4644 32.7219 29.4093C32.6301 29.3656 32.5303 29.3417 32.4287 29.3391C32.3272 29.3365 32.2262 29.3552 32.1323 29.3941C32.0385 29.433 31.9538 29.4912 31.8839 29.5648C31.8139 29.6385 31.7602 29.726 31.7263 29.8218C31.6557 30.0198 31.5547 30.2056 31.4269 30.3724L33.2713 34.2799L33.5213 33.6368C33.5796 33.4876 33.6929 33.3664 33.838 33.2984C33.983 33.2303 34.1486 33.2206 34.3006 33.2711Z" fill="white"/>
<path d="M4.1687 34.3813V37.5001H32.4937V35.5626L30.375 31.0663C30.0423 31.1588 29.6907 31.1588 29.3581 31.0663L26.9681 36.1251C26.9177 36.2318 26.8381 36.3221 26.7386 36.3854C26.639 36.4488 26.5236 36.4827 26.4056 36.4832H26.3812C26.2588 36.4793 26.1403 36.4396 26.0403 36.3689C25.9403 36.2983 25.8632 36.1998 25.8187 36.0857L25.2562 34.6438L23.7856 35.1288C23.6695 35.167 23.5449 35.1703 23.427 35.1384C23.3091 35.1064 23.2032 35.0406 23.1222 34.9492C23.0413 34.8577 22.989 34.7445 22.9717 34.6236C22.9544 34.5027 22.9729 34.3793 23.025 34.2688L25.3125 29.4107C25.1071 29.3135 24.9199 29.1821 24.7587 29.022C24.468 28.7348 24.2746 28.3637 24.2058 27.9608C24.1369 27.558 24.1961 27.1438 24.375 26.7763C24.4186 26.6846 24.4425 26.5847 24.4451 26.4832C24.4477 26.3816 24.429 26.2806 24.3901 26.1868C24.3512 26.0929 24.2931 26.0083 24.2194 25.9384C24.1457 25.8684 24.0582 25.8147 23.9625 25.7807C23.5781 25.6439 23.2455 25.3915 23.0102 25.0582C22.775 24.7248 22.6488 24.3268 22.6488 23.9188C22.6488 23.5109 22.775 23.1129 23.0102 22.7795C23.2455 22.4461 23.5781 22.1937 23.9625 22.057C24.0584 22.0234 24.1461 21.9698 24.2198 21.8997C24.2935 21.8297 24.3515 21.7448 24.3899 21.6507C24.3981 21.6313 24.395 21.6107 24.4012 21.5913C22.5078 20.682 20.4335 20.212 18.3331 20.2163C14.5775 20.22 10.9767 21.7135 8.32115 24.3692C5.66559 27.0249 4.17218 30.6257 4.1687 34.3813Z" fill="white"/>
<path d="M27.5963 29.3942C27.5024 29.355 27.4013 29.336 27.2997 29.3386C27.198 29.3412 27.098 29.3652 27.0063 29.4092C26.8872 29.4643 26.7631 29.5076 26.6356 29.5385L24.7756 33.486L25.4275 33.271C25.5793 33.221 25.7444 33.2311 25.889 33.2991C26.0337 33.3671 26.1467 33.4879 26.205 33.6367L26.455 34.2798L28.3013 30.3748C28.1733 30.2083 28.0723 30.0227 28.0019 29.8248C27.9689 29.7282 27.9156 29.6399 27.8457 29.5656C27.7757 29.4913 27.6907 29.4329 27.5963 29.3942Z" fill="white"/>
</svg>
