<svg width="40" height="40" viewBox="0 0 40 40" fill="none" xmlns="http://www.w3.org/2000/svg">
<path d="M37.5999 24.3392C36.5804 23.8677 35.4608 23.6537 34.3392 23.7159C33.2177 23.7781 32.1286 24.1147 31.1674 24.6961L24.4418 28.7586L23.6549 28.5442L24.8199 27.1611C24.8809 27.089 24.9247 27.0041 24.9482 26.9127C24.9716 26.8213 24.974 26.7257 24.9553 26.6332C24.9365 26.5407 24.897 26.4537 24.8398 26.3786C24.7826 26.3036 24.7092 26.2424 24.6249 26.1998L16.2687 21.9417C16.1701 21.8915 16.06 21.8683 15.9495 21.8745C15.839 21.8808 15.7322 21.9163 15.6399 21.9773L7.87495 27.1117L6.4937 25.028C6.40202 24.8899 6.25925 24.7939 6.09681 24.7611C5.93436 24.7283 5.76553 24.7613 5.62745 24.853L2.2362 27.103C2.16775 27.1484 2.10893 27.2068 2.06308 27.2749C2.01724 27.3431 1.98528 27.4196 1.96902 27.5001C1.95277 27.5806 1.95255 27.6635 1.96836 27.7441C1.98418 27.8247 2.01572 27.9014 2.0612 27.9698L9.02432 38.4698C9.116 38.6079 9.25877 38.7039 9.42121 38.7367C9.58366 38.7695 9.75249 38.7365 9.89057 38.6448L13.2818 36.3948C13.4199 36.3031 13.5159 36.1604 13.5487 35.9979C13.5815 35.8355 13.5485 35.6667 13.4568 35.5286L12.1743 33.5942L12.7818 33.2317L23.0699 36.3567C23.1651 36.3855 23.2658 36.3912 23.3637 36.3732C23.4615 36.3553 23.5537 36.3143 23.6324 36.2536L37.7199 25.4017C37.8051 25.3361 37.8718 25.2496 37.9138 25.1506C37.9557 25.0516 37.9714 24.9435 37.9593 24.8366C37.9473 24.7298 37.9078 24.6279 37.8449 24.5408C37.7819 24.4536 37.6976 24.3842 37.5999 24.3392ZM9.72495 37.2586L3.44932 27.798L5.79807 26.2398L7.17307 28.313C7.17307 28.3167 7.17307 28.3205 7.17682 28.3236C7.18057 28.3267 7.18245 28.328 7.18495 28.3317L10.7562 33.7173L12.0687 35.7004L9.72495 37.2586ZM23.1249 35.0692L12.8818 31.9573C12.7987 31.9325 12.7113 31.9252 12.6252 31.936C12.5392 31.9467 12.4563 31.9753 12.3818 32.0198L11.4862 32.5548L8.5687 28.1542L16.0281 23.2217L23.3587 26.9573L22.3274 28.1817L18.0724 27.0223C17.9125 26.9786 17.7417 27.0003 17.5977 27.0825C17.4537 27.1648 17.3483 27.3008 17.3046 27.4608C17.261 27.6207 17.2826 27.7915 17.3648 27.9355C17.4471 28.0795 17.5831 28.1849 17.7431 28.2286L22.3349 29.4786H22.3399L24.3749 30.0342C24.4565 30.0559 24.5415 30.061 24.6251 30.0492C24.7086 30.0374 24.7889 30.0089 24.8612 29.9655L31.8124 25.7661C33.0815 24.9981 34.603 24.7637 36.0443 25.1142L23.1249 35.0692Z" fill="white"/>
<path d="M33.3438 11.3877H33.425C33.5138 11.4016 33.6045 11.3959 33.6909 11.371C33.7772 11.3462 33.8571 11.3028 33.925 11.2438C33.9928 11.1849 34.047 11.1119 34.0837 11.0299C34.1204 10.9479 34.1388 10.8588 34.1375 10.769V7.48149C34.1383 7.39918 34.1227 7.31753 34.0916 7.24133C34.0605 7.16512 34.0145 7.09589 33.9563 7.03769C33.8981 6.97948 33.8289 6.93348 33.7527 6.90236C33.6765 6.87125 33.5948 6.85565 33.5125 6.85649H30.8C30.6621 6.32828 30.353 5.8607 29.9209 5.52697C29.4889 5.19324 28.9584 5.01221 28.4125 5.01221C27.8666 5.01221 27.3361 5.19324 26.9041 5.52697C26.472 5.8607 26.1629 6.32828 26.025 6.85649H22.6075C22.6031 6.85649 22.5994 6.85649 22.5944 6.85649H13.8444C13.6786 6.85649 13.5197 6.92234 13.4024 7.03955C13.2852 7.15676 13.2194 7.31573 13.2194 7.48149V10.0265C12.7018 10.1629 12.2439 10.4668 11.9171 10.8908C11.5904 11.3147 11.4132 11.835 11.4132 12.3702C11.4132 12.9055 11.5904 13.4257 11.9171 13.8497C12.2439 14.2737 12.7018 14.5776 13.2194 14.714V17.7315C13.2194 17.8973 13.2852 18.0562 13.4024 18.1734C13.5197 18.2906 13.6786 18.3565 13.8444 18.3565H16.2144C16.3801 18.3565 16.5391 18.2906 16.6563 18.1734C16.7735 18.0562 16.8394 17.8973 16.8394 17.7315C16.8394 17.5755 16.8701 17.4211 16.9298 17.2771C16.9895 17.133 17.0769 17.0021 17.1872 16.8918C17.2975 16.7815 17.4284 16.6941 17.5724 16.6344C17.7165 16.5747 17.8709 16.544 18.0269 16.544C18.1828 16.544 18.3372 16.5747 18.4813 16.6344C18.6254 16.6941 18.7563 16.7815 18.8666 16.8918C18.9768 17.0021 19.0643 17.133 19.124 17.2771C19.1837 17.4211 19.2144 17.5755 19.2144 17.7315C19.2144 17.8973 19.2802 18.0562 19.3974 18.1734C19.5147 18.2906 19.6736 18.3565 19.8394 18.3565H33.5125C33.6783 18.3565 33.8372 18.2906 33.9544 18.1734C34.0717 18.0562 34.1375 17.8973 34.1375 17.7315V14.4377C34.1361 14.3501 34.1165 14.2638 34.0799 14.1841C34.0433 14.1045 33.9906 14.0334 33.925 13.9752C33.8577 13.917 33.7791 13.8731 33.6942 13.8462C33.6094 13.8193 33.5199 13.8101 33.4313 13.819C33.4 13.8252 33.3688 13.819 33.3438 13.8252C33.0207 13.8247 32.711 13.6962 32.4825 13.4677C32.2541 13.2393 32.1255 12.9296 32.125 12.6065C32.1226 12.4458 32.1524 12.2862 32.2128 12.1372C32.2732 11.9882 32.3629 11.8529 32.4765 11.7393C32.5902 11.6256 32.7255 11.5359 32.8745 11.4755C33.0235 11.4151 33.183 11.3853 33.3438 11.3877ZM18.0281 15.2946C17.4922 15.2964 16.9719 15.475 16.5479 15.8027C16.1239 16.1305 15.8199 16.589 15.6831 17.1071H14.4713V14.1796C14.4713 14.0139 14.4054 13.8549 14.2882 13.7377C14.171 13.6205 14.012 13.5546 13.8463 13.5546C13.5313 13.5546 13.2293 13.4295 13.0066 13.2068C12.7839 12.9841 12.6588 12.6821 12.6588 12.3671C12.6588 12.0522 12.7839 11.7501 13.0066 11.5274C13.2293 11.3047 13.5313 11.1796 13.8463 11.1796C14.012 11.1796 14.171 11.1138 14.2882 10.9966C14.4054 10.8793 14.4713 10.7204 14.4713 10.5546V8.10399H21.9713V9.71899C21.4669 9.85684 21.0219 10.1566 20.7046 10.5722C20.3874 10.9878 20.2156 11.4962 20.2156 12.019C20.2156 12.5418 20.3874 13.0502 20.7046 13.4657C21.0219 13.8813 21.4669 14.1811 21.9713 14.319V17.1059H20.375C20.2379 16.5876 19.9335 16.1292 19.5092 15.8017C19.0848 15.4742 18.5642 15.2959 18.0281 15.2946Z" fill="white"/>
<path d="M10.7412 18.1182C10.907 18.1182 11.0659 18.0524 11.1831 17.9352C11.3004 17.818 11.3662 17.659 11.3662 17.4932V15.9195C11.3662 15.9076 11.36 15.8976 11.3593 15.8857C11.355 15.8446 11.3466 15.804 11.3343 15.7645C11.3259 15.7237 11.3131 15.6839 11.2962 15.6457C11.2912 15.6357 11.2918 15.6239 11.2862 15.6139C11.2703 15.5919 11.253 15.571 11.2343 15.5514C11.2096 15.5155 11.1811 15.4824 11.1493 15.4526C11.1191 15.4274 11.0864 15.4052 11.0518 15.3864C11.0181 15.3654 10.9826 15.3477 10.9456 15.3332C10.9049 15.3205 10.863 15.3119 10.8206 15.3076C10.7953 15.3009 10.7696 15.2956 10.7437 15.292H9.03183C8.86607 15.292 8.7071 15.3578 8.58989 15.4751C8.47268 15.5923 8.40683 15.7512 8.40683 15.917C8.40683 16.0828 8.47268 16.2417 8.58989 16.3589C8.7071 16.4761 8.86607 16.542 9.03183 16.542H9.10371C8.03433 17.8032 6.94121 20.1126 8.45808 23.6189C8.48851 23.6971 8.53438 23.7684 8.59297 23.8285C8.65155 23.8886 8.72164 23.9363 8.79906 23.9688C8.87647 24.0012 8.95963 24.0177 9.04357 24.0173C9.1275 24.0169 9.2105 23.9996 9.2876 23.9664C9.3647 23.9332 9.43433 23.8849 9.49234 23.8242C9.55034 23.7635 9.59553 23.6918 9.6252 23.6133C9.65488 23.5348 9.66844 23.4511 9.66507 23.3672C9.6617 23.2833 9.64147 23.201 9.60558 23.1251C8.29871 20.1045 9.25558 18.227 10.1162 17.2626V17.4932C10.1162 17.659 10.1821 17.818 10.2993 17.9352C10.4165 18.0524 10.5754 18.1182 10.7412 18.1182Z" fill="white"/>
<path d="M36.47 13.9808C36.318 14.0467 36.1983 14.1703 36.1373 14.3244C36.0764 14.4786 36.0792 14.6506 36.145 14.8027C37.4575 17.8233 36.4988 19.7014 35.6394 20.6664V20.4377C35.6394 20.2719 35.5736 20.1129 35.4563 19.9957C35.3391 19.8785 35.1802 19.8127 35.0144 19.8127C34.8486 19.8127 34.6897 19.8785 34.5725 19.9957C34.4553 20.1129 34.3894 20.2719 34.3894 20.4377V22.0114C34.3894 22.0233 34.3957 22.0333 34.3963 22.0445C34.4004 22.0869 34.4088 22.1288 34.4213 22.1695C34.4298 22.2101 34.4426 22.2497 34.4594 22.2877C34.4644 22.2983 34.4638 22.3095 34.4694 22.3202C34.5336 22.4321 34.6313 22.5211 34.7488 22.5745C34.7657 22.5827 34.7825 22.5889 34.8 22.5958C34.8682 22.6224 34.9406 22.6367 35.0138 22.6383H36.7232C36.8889 22.6383 37.0479 22.5724 37.1651 22.4552C37.2823 22.338 37.3482 22.179 37.3482 22.0133C37.3482 21.8475 37.2823 21.6886 37.1651 21.5713C37.0479 21.4541 36.8889 21.3883 36.7232 21.3883H36.6513C37.7188 20.1264 38.8107 17.8158 37.29 14.3102C37.2249 14.1578 37.102 14.0375 36.9482 13.9757C36.7945 13.9139 36.6225 13.9158 36.47 13.9808Z" fill="white"/>
<path d="M7.7713 5.53884C7.76264 5.62056 7.77018 5.70319 7.7935 5.78199C7.81681 5.86079 7.85543 5.93423 7.90716 5.99808C7.95888 6.06194 8.02269 6.11497 8.09494 6.15414C8.16718 6.19331 8.24644 6.21784 8.32818 6.22634L10.2344 6.42384C10.2552 6.42623 10.276 6.42748 10.2969 6.42759C10.4573 6.42761 10.6115 6.366 10.7277 6.25549C10.8439 6.14498 10.9132 5.99404 10.9212 5.83388C10.9292 5.67373 10.8754 5.51661 10.7708 5.39504C10.6663 5.27346 10.519 5.19673 10.3594 5.18072L8.45318 4.98322C8.3718 4.97423 8.28945 4.98154 8.21093 5.0047C8.13241 5.02787 8.05928 5.06644 7.99582 5.11815C7.93235 5.16987 7.87981 5.2337 7.84127 5.30593C7.80272 5.37815 7.77894 5.45733 7.7713 5.53884Z" fill="white"/>
<path d="M10.6794 4.33477C10.7896 4.33468 10.8978 4.30545 10.9931 4.25004C11.0884 4.19462 11.1673 4.115 11.2219 4.01923C11.2765 3.92347 11.3048 3.81498 11.3039 3.70476C11.303 3.59454 11.273 3.48652 11.2169 3.39164L10.4 2.00664C10.3583 1.93593 10.303 1.87414 10.2374 1.82478C10.1718 1.77543 10.0971 1.73948 10.0176 1.71899C9.93806 1.69851 9.85529 1.69388 9.774 1.70538C9.6927 1.71688 9.61446 1.74428 9.54375 1.78602C9.47304 1.82775 9.41125 1.88301 9.36189 1.94862C9.31254 2.01424 9.27659 2.08894 9.25611 2.16845C9.21473 2.32903 9.23884 2.49946 9.32313 2.64227L10.1406 4.02727C10.1959 4.12098 10.2747 4.19864 10.3692 4.25257C10.4637 4.30651 10.5706 4.33484 10.6794 4.33477Z" fill="white"/>
<path d="M12.9607 4.1945C13.1085 4.19446 13.2516 4.14201 13.3644 4.04646C13.4772 3.95091 13.5525 3.81845 13.5769 3.67263L13.8607 1.97825C13.888 1.81473 13.8493 1.64704 13.753 1.51207C13.6567 1.37711 13.5108 1.28592 13.3472 1.25857C13.1837 1.23122 13.016 1.26995 12.8811 1.36623C12.7461 1.46252 12.6549 1.60848 12.6276 1.772L12.3438 3.46638C12.33 3.54744 12.3324 3.63043 12.3507 3.71059C12.369 3.79074 12.403 3.86649 12.4507 3.93349C12.4984 4.00049 12.5588 4.05743 12.6285 4.10104C12.6982 4.14465 12.7758 4.17408 12.8569 4.18763C12.8913 4.19266 12.926 4.19496 12.9607 4.1945Z" fill="white"/>
</svg>
