<svg width="37" height="36" viewBox="0 0 37 36" fill="none" xmlns="http://www.w3.org/2000/svg">
<path d="M3.22656 8.16273C3.22656 6.11781 4.89023 4.45406 6.93523 4.45406C8.98024 4.45406 10.6439 6.11773 10.6439 8.16273C10.6439 10.2077 8.98195 11.8696 6.93844 11.8713C6.93734 11.8713 6.93625 11.8713 6.93516 11.8713C6.93383 11.8713 6.93258 11.8713 6.93125 11.8713C4.88813 11.8691 3.22656 10.2063 3.22656 8.16273ZM14.7946 30.658L13.8729 28.9244C13.8125 28.8108 13.731 28.7424 13.6088 28.7027L13.1984 28.5694L11.1088 33.7634L13.7086 33.2637L15.3627 35.3309L16.7992 31.047L16.3558 31.2262C15.7648 31.4649 15.0938 31.2205 14.7946 30.658ZM18.3427 11.1652H18.3487H18.3548C21.4303 11.162 23.9315 8.65898 23.9315 5.58266C23.9315 2.50633 21.4271 0 18.3488 0C15.2705 0 12.7662 2.50437 12.7662 5.58266C12.7662 8.66094 15.2673 11.1619 18.3428 11.1652H18.3427ZM10.9952 13.9644C9.81922 13.117 8.39633 12.6534 6.93836 12.6527C6.93727 12.6527 6.93625 12.6527 6.93516 12.6527C6.93414 12.6527 6.93313 12.6527 6.93203 12.6527C3.23461 12.6542 0.203359 15.5599 0 19.2078H7.69117C8.27703 17.1558 9.44141 15.3455 10.9952 13.9644ZM29.762 12.6495C29.761 12.6495 29.76 12.6495 29.759 12.6495C29.7579 12.6495 29.7568 12.6495 29.7557 12.6495C28.2975 12.6502 26.8744 13.1137 25.6981 13.9609C27.2539 15.3426 28.4198 17.154 29.0061 19.2078H36.6972C36.4941 15.558 33.4614 12.6511 29.762 12.6495ZM18.3548 11.9465C18.3527 11.9465 18.3508 11.9466 18.3488 11.9466C18.3467 11.9466 18.3447 11.9465 18.3427 11.9465C12.7967 11.9497 8.26195 16.3584 8.05609 21.8555H10.0485C10.1006 21.5642 10.2569 21.2915 10.507 21.0959L12.0542 19.8872C12.1555 19.808 12.2088 19.7159 12.2266 19.5885L12.4999 17.6442C12.5886 17.0132 13.1345 16.5539 13.7726 16.5763L15.7348 16.6448C15.8636 16.6494 15.9633 16.6129 16.0588 16.5269L17.5179 15.213C17.9915 14.7866 18.7057 14.7866 19.1793 15.213C19.6529 15.6395 20.6384 16.5268 20.6384 16.5268C20.7339 16.6129 20.8341 16.6497 20.9623 16.6448L22.9246 16.5763C23.5622 16.5546 24.1086 17.0132 24.1973 17.6442L24.4705 19.5885C24.4884 19.7159 24.5416 19.808 24.643 19.8872L26.1902 21.0959C26.4404 21.2914 26.5966 21.5642 26.6488 21.8555H28.6411C28.4352 16.3584 23.9006 11.9498 18.3548 11.9465ZM23.0885 28.7027C22.9663 28.7424 22.8848 28.8108 22.8245 28.9243L21.9027 30.6579C21.6809 31.0751 21.2545 31.3173 20.808 31.3173C20.6523 31.3173 20.4942 31.2879 20.3415 31.2261L19.898 31.047L21.3347 35.3309L22.9887 33.2637L25.5885 33.7634L23.4989 28.5694L23.0885 28.7027ZM19.7965 22.2538C19.4736 22.2538 19.1901 22.0475 19.0908 21.7401L18.3486 19.4408L17.6064 21.74C17.5071 22.0475 17.2236 22.2537 16.9006 22.2538H16.8991L14.4832 22.2492L16.4405 23.6655C16.7027 23.8553 16.8113 24.1895 16.7106 24.497L15.9596 26.7934L17.9115 25.3695C18.0422 25.2741 18.1954 25.2264 18.3486 25.2264C18.5018 25.2264 18.6549 25.2741 18.7857 25.3695L20.7376 26.7934L19.9866 24.497C19.8859 24.1895 19.9945 23.8554 20.2567 23.6656L22.214 22.2493L19.798 22.2539H19.7964L19.7965 22.2538ZM25.8161 22.3181L24.7756 23.9831C24.6017 24.2613 24.5459 24.578 24.6141 24.8991L25.0223 26.8197C25.0715 27.0508 24.9391 27.2801 24.7145 27.353L22.8471 27.9598C22.535 28.0612 22.2886 28.268 22.1346 28.5577L21.2129 30.2913C21.102 30.4998 20.8532 30.5905 20.6341 30.5019L18.8137 29.7663C18.6616 29.7048 18.5051 29.6741 18.3486 29.6741C18.1921 29.6741 18.0356 29.7049 17.8835 29.7663L16.0631 30.5019C15.8443 30.5905 15.5953 30.4998 15.4844 30.2913L14.5627 28.5577C14.4086 28.268 14.1622 28.0612 13.8502 27.9598L11.9828 27.353C11.7581 27.2801 11.6257 27.0508 11.6748 26.8197L12.0831 24.8991C12.1514 24.5782 12.0955 24.2614 11.9216 23.9831L10.8812 22.318C10.7559 22.1177 10.802 21.857 10.9881 21.7116L12.5353 20.5028C12.7939 20.3008 12.9548 20.0223 13.0004 19.6972L13.2737 17.7529C13.3066 17.5189 13.5104 17.3486 13.7455 17.357L15.7077 17.4255C16.0351 17.4365 16.3379 17.327 16.5817 17.1074L18.0408 15.7936C18.2163 15.6355 18.4811 15.6355 18.6566 15.7936L20.1157 17.1073C20.3595 17.327 20.6616 17.4366 20.9898 17.4255L22.952 17.357C23.1891 17.3478 23.3909 17.519 23.4238 17.7529L23.6971 19.6971C23.7427 20.022 23.9035 20.3005 24.1622 20.5027L25.7094 21.7115C25.8955 21.857 25.9416 22.1177 25.8163 22.318L25.8161 22.3181ZM23.0419 21.9802C22.9422 21.6735 22.6589 21.4677 22.3367 21.4677H22.3351L19.8253 21.4726L19.0544 19.0842C18.9552 18.7768 18.6715 18.5703 18.3486 18.5703C18.0257 18.5703 17.742 18.7769 17.6428 19.0841L16.8719 21.4726L14.3622 21.4677H14.3605C14.0383 21.4677 13.755 21.6735 13.6553 21.9803C13.5556 22.2875 13.6644 22.621 13.9259 22.8103L15.9591 24.2816L15.179 26.6671C15.0786 26.9741 15.1867 27.3078 15.448 27.4977C15.5784 27.5924 15.7312 27.6398 15.8839 27.6398C16.0366 27.6398 16.1903 27.5921 16.321 27.4968L18.3486 26.0177L20.3762 27.4968C20.6371 27.6872 20.988 27.6875 21.2493 27.4977C21.5105 27.3078 21.6187 26.9741 21.5183 26.6671L20.7381 24.2817L22.7713 22.8105C23.033 22.6212 23.1417 22.2876 23.042 21.9804L23.0419 21.9802ZM29.7556 11.8681H29.7588H29.7629C31.807 11.8659 33.4694 10.2023 33.4694 8.15781C33.4694 6.11328 31.8048 4.44734 29.7589 4.44734C27.713 4.44734 26.0484 6.11188 26.0484 8.15781C26.0484 10.2037 27.7112 11.8663 29.7556 11.8681Z" fill="white"/>
</svg>
