<svg width="40" height="40" viewBox="0 0 40 40" fill="none" xmlns="http://www.w3.org/2000/svg">
<g clip-path="url(#clip0_626_105)">
<path d="M15.579 6.61353C15.487 6.42799 15.508 6.20572 15.6336 6.04041L19.5658 0.877832C19.6687 0.742129 19.8294 0.662598 20.0001 0.662598C20.1708 0.662598 20.3315 0.742129 20.4344 0.877832L24.3666 6.04041C24.492 6.20572 24.5131 6.42791 24.4212 6.61353C24.3291 6.79986 24.1397 6.9176 23.9323 6.9176H22.0422V11.3995C21.6843 11.334 21.3202 11.2849 20.9505 11.2545C20.6371 11.228 20.3205 11.2147 20.0001 11.2147C19.6804 11.2147 19.3646 11.228 19.052 11.2545C18.6824 11.2849 18.3182 11.334 17.9603 11.3995V6.91768H16.0679C15.8605 6.91768 15.6709 6.79994 15.579 6.61353ZM39.7458 10.1878L34.5824 6.25564C34.4171 6.1301 34.1957 6.1083 34.0093 6.20033C33.8237 6.29314 33.706 6.4826 33.706 6.69002V8.58166H28.3657C26.2308 8.58166 24.4086 9.94541 23.724 11.8463C24.0694 11.9672 24.407 12.1053 24.7361 12.2581C25.3365 12.5372 25.908 12.8686 26.4437 13.2452C26.8195 13.5095 27.1782 13.7964 27.5173 14.1044V13.5103C27.5173 13.0517 27.9057 12.6642 28.3657 12.6642H33.706V14.5535C33.706 14.7617 33.8237 14.9512 34.0093 15.0432C34.1957 15.1353 34.4171 15.1142 34.5824 14.9878L39.7458 11.0565C39.8814 10.9528 39.9609 10.7922 39.9609 10.6222C39.9609 10.4513 39.8814 10.2907 39.7458 10.1878ZM12.4827 13.5103V14.1044C12.8218 13.7964 13.1805 13.5095 13.5563 13.2452C14.092 12.8685 14.6635 12.5372 15.2639 12.2581C15.593 12.1053 15.9306 11.9672 16.276 11.8463C15.5922 9.94541 13.77 8.58166 11.6366 8.58166H6.29398V6.68994C6.29398 6.48252 6.17625 6.29307 5.9907 6.20025C5.8043 6.10822 5.58289 6.12932 5.41758 6.25557L0.254219 10.1878C0.118594 10.2907 0.0390625 10.4513 0.0390625 10.6221C0.0390625 10.7921 0.118594 10.9528 0.254219 11.0564L5.41758 14.9878C5.58289 15.1141 5.8043 15.1351 5.9907 15.0431C6.17625 14.9511 6.29398 14.7617 6.29398 14.5535V12.6642H11.6367C12.0952 12.6642 12.4827 13.0517 12.4827 13.5103ZM17.9626 37.4867C17.9626 38.5074 18.8764 39.3371 20 39.3371C21.1236 39.3371 22.0374 38.5074 22.0374 37.4867V37.231H17.9626V37.4867ZM26.3922 21.1336V23.1095C26.3922 23.3653 26.2152 23.5859 25.9665 23.642L24.6394 23.9431C24.6167 24.0008 24.5926 24.0577 24.5684 24.1146L25.2952 25.2647C25.4316 25.4807 25.4004 25.7621 25.2203 25.9423L23.823 27.3396C23.6429 27.5196 23.3623 27.5509 23.1462 27.4152L21.9923 26.6892C21.9353 26.7142 21.8784 26.7376 21.8215 26.7602L21.5205 28.0888C21.4644 28.3376 21.2429 28.5138 20.9879 28.5138H19.0121C18.7571 28.5138 18.5356 28.3375 18.4795 28.0888L18.1785 26.7602C18.1216 26.7376 18.0647 26.7142 18.0077 26.6892L16.8561 27.4152C16.6409 27.5509 16.3595 27.5196 16.1793 27.3396L14.782 25.9423C14.6019 25.7622 14.5707 25.4807 14.7063 25.2655L15.4323 24.1138C15.4073 24.0569 15.3839 24 15.3613 23.9431L14.0334 23.642C13.7847 23.5859 13.6077 23.3653 13.6077 23.1095V21.1336C13.6077 20.8786 13.7848 20.658 14.0334 20.601L15.3613 20.3009C15.384 20.2431 15.4081 20.1855 15.433 20.1285L14.7063 18.9761C14.5707 18.7601 14.6019 18.4794 14.782 18.2985L16.1793 16.9021C16.3595 16.7211 16.6409 16.6899 16.8569 16.8264L18.0077 17.5539C18.0638 17.529 18.1208 17.5056 18.1792 17.4822L18.4795 16.1551C18.5355 15.9063 18.757 15.7294 19.012 15.7294H20.9878C21.2428 15.7294 21.4643 15.9064 21.5204 16.1551L21.8206 17.4822C21.8791 17.5056 21.936 17.529 21.993 17.5539L23.1454 16.8264C23.3613 16.6899 23.6428 16.7211 23.823 16.9021L25.2202 18.2985C25.4003 18.4795 25.4316 18.7609 25.2951 18.9761L24.5676 20.1278C24.5925 20.1847 24.6166 20.2424 24.6393 20.3009L25.9664 20.601C26.2152 20.6579 26.3922 20.8786 26.3922 21.1336ZM22.8608 21.3542C22.4366 19.7776 20.8093 18.8388 19.2335 19.2607H19.232C17.6577 19.6856 16.7189 21.313 17.1408 22.8888C17.4948 24.2088 18.694 25.0821 20.0016 25.0821C20.2541 25.0821 20.5115 25.0494 20.7665 24.9808C22.3438 24.5589 23.2834 22.9324 22.8608 21.3542ZM29.9992 22.102C29.9992 25.3924 28.7438 26.8871 27.7356 28.0879C26.9785 28.9892 26.3812 29.7012 26.3812 30.9939C26.3812 31.705 25.9033 32.3101 25.2468 32.5113C25.0948 32.5581 24.9341 32.583 24.7673 32.583H24.1552H15.8448H15.2328C15.0659 32.583 14.9053 32.5581 14.7533 32.5113C14.0968 32.3101 13.6188 31.705 13.6188 30.9939C13.6188 29.7011 13.0216 28.9892 12.2645 28.0879C11.2563 26.8871 10.0009 25.3924 10.0009 22.102C10.0009 16.7 14.4866 12.3063 20.0001 12.3063C25.5135 12.3063 29.9992 16.7001 29.9992 22.102ZM28.9076 22.102C28.9076 17.3028 24.9115 13.3979 20 13.3979C15.0885 13.3979 11.0924 17.3028 11.0924 22.102C11.0924 24.9948 12.1131 26.2103 13.1002 27.3862C13.8924 28.3289 14.7112 29.3035 14.7112 30.994C14.7112 31.2677 14.9451 31.4907 15.2328 31.4907H24.7673C25.055 31.4907 25.2889 31.2678 25.2889 30.994C25.2889 29.3035 26.1076 28.3289 26.8998 27.3862C27.8869 26.2103 28.9076 24.9948 28.9076 22.102ZM15.8448 35.454C15.8448 35.8314 16.1957 36.1386 16.627 36.1386H23.3731C23.7973 36.1386 24.1552 35.8252 24.1552 35.454V33.6747H15.8448V35.454Z" fill="white"/>
</g>
<defs>
<clipPath id="clip0_626_105">
<rect width="40" height="40" fill="white"/>
</clipPath>
</defs>
</svg>
