<svg width="40" height="40" viewBox="0 0 40 40" fill="none" xmlns="http://www.w3.org/2000/svg">
<path d="M12.5561 20.7078C12.1457 20.298 11.5894 20.0679 11.0095 20.0679C10.4295 20.0679 9.87325 20.298 9.46284 20.7078L8.57909 21.5916C8.37592 21.7946 8.21475 22.0358 8.10479 22.3011C7.99483 22.5665 7.93823 22.851 7.93823 23.1382C7.93823 23.4255 7.99483 23.7099 8.10479 23.9753C8.21475 24.2407 8.37592 24.4818 8.57909 24.6848L15.6494 31.7564C16.06 32.1664 16.6164 32.3966 17.1966 32.3966C17.7769 32.3966 18.3333 32.1664 18.7439 31.7564L19.6276 30.8726C20.0374 30.4621 20.2676 29.9057 20.2676 29.3257C20.2676 28.7456 20.0374 28.1893 19.6276 27.7788L12.5561 20.7078Z" fill="white"/>
<path d="M35 16.2129V29.0254C34.9978 29.3842 34.9078 29.7369 34.7379 30.0529C34.5679 30.3688 34.3232 30.6384 34.025 30.8379L30.1251 33.4379C29.7671 33.6792 29.3441 33.8057 28.9124 33.8004C28.6248 33.8013 28.3399 33.7455 28.074 33.6361C27.808 33.5267 27.5663 33.3659 27.3627 33.1629L25 30.8004L28.5748 27.2254C30.8875 24.5504 31.825 22.6754 34.0625 18.1504L34.1876 17.9255C34.4626 17.3629 34.7375 16.7878 35 16.2129Z" fill="white"/>
<path d="M22.2124 6.25L22.1874 6.2625C17.7874 8.45 15.7873 9.45 12.9998 11.875L8.61259 16.25L6.24992 13.8875V13.875C5.89282 13.5193 5.67021 13.0507 5.62006 12.5492C5.56991 12.0477 5.69533 11.5444 5.97492 11.125L8.56254 7.225C8.76267 6.92452 9.03405 6.67823 9.35249 6.50811C9.67092 6.33799 10.0265 6.24932 10.3875 6.25H22.2124Z" fill="white"/>
<path d="M37.3046 3.02999C37.1978 2.92146 37.0657 2.84104 36.9202 2.7959C36.7748 2.75075 36.6204 2.74228 36.4709 2.77124C31.7821 3.63698 27.2368 5.15198 22.9662 7.27254L22.7404 7.38545C18.3129 9.58455 16.4806 10.4952 13.8818 12.753L9.46282 17.1718C9.05303 17.5824 8.82288 18.1387 8.82288 18.7188C8.82288 19.2988 9.05303 19.8552 9.46282 20.2657L20.0695 30.873C20.4804 31.282 21.0365 31.5115 21.6163 31.5114C22.196 31.5113 22.7521 31.2815 23.1628 30.8724L27.6269 26.4046C29.8388 23.8552 30.7494 22.0229 32.9492 17.596L33.0627 17.3678C35.183 13.0971 36.6978 8.55188 37.5634 3.86312C37.5912 3.71367 37.5821 3.55972 37.537 3.41456C37.4919 3.2694 37.4122 3.13741 37.3046 3.02999ZM25.8141 21.1495C25.3789 21.5847 24.8622 21.93 24.2935 22.1655C23.7248 22.401 23.1153 22.5222 22.4997 22.5222C21.8842 22.5222 21.2747 22.4009 20.706 22.1653C20.1373 21.9297 19.6207 21.5845 19.1854 21.1492C18.7502 20.7139 18.405 20.1972 18.1694 19.6285C17.9339 19.0598 17.8127 18.4503 17.8127 17.8348C17.8127 17.2192 17.934 16.6097 18.1696 16.0411C18.4052 15.4724 18.7505 14.9557 19.1857 14.5205C20.0787 13.6684 21.2656 13.193 22.4999 13.193C23.7342 13.193 24.9211 13.6684 25.8141 14.5205C26.2495 14.9557 26.5949 15.4724 26.8305 16.0411C27.0662 16.6098 27.1874 17.2194 27.1874 17.835C27.1874 18.4506 27.0662 19.0601 26.8305 19.6289C26.5949 20.1976 26.2495 20.7143 25.8141 21.1495Z" fill="white"/>
<path d="M22.5 15.0229C21.9437 15.0229 21.4 15.1878 20.9374 15.4968C20.4749 15.8058 20.1144 16.2451 19.9015 16.759C19.6887 17.2729 19.633 17.8385 19.7416 18.384C19.8502 18.9296 20.1181 19.4307 20.5115 19.824C21.0473 20.3352 21.7594 20.6205 22.5 20.6205C23.2406 20.6205 23.9527 20.3352 24.4885 19.824C24.8819 19.4307 25.1498 18.9296 25.2584 18.384C25.367 17.8385 25.3113 17.2729 25.0985 16.759C24.8856 16.2451 24.5251 15.8058 24.0626 15.4968C23.6 15.1878 23.0563 15.0229 22.5 15.0229Z" fill="white"/>
<path d="M10.94 29.0602C10.5554 28.6829 10.0969 28.3893 9.59333 28.1979C9.08975 28.0066 8.552 27.9215 8.01394 27.9481C6.95446 27.9367 5.93341 28.3446 5.17336 29.0828C4.68748 29.6593 4.41618 30.3863 4.40553 31.1403C4.33013 31.7779 4.21598 32.4104 4.06371 33.0342C3.85294 33.8914 3.57371 34.7302 3.22871 35.5427C3.16767 35.6852 3.14297 35.8407 3.15682 35.9951C3.17068 36.1495 3.22265 36.298 3.30809 36.4274C3.39352 36.5567 3.50973 36.6628 3.6463 36.7362C3.78287 36.8095 3.93551 36.8478 4.09053 36.8476C4.12478 36.8476 4.15899 36.8458 4.19303 36.8421C5.07678 36.7445 9.55553 36.1884 10.9399 34.8048C11.3172 34.4277 11.6165 33.9799 11.8207 33.487C12.0249 32.9942 12.13 32.4659 12.13 31.9325C12.13 31.399 12.0249 30.8707 11.8207 30.3779C11.6165 29.8851 11.3173 29.4373 10.94 29.0602Z" fill="white"/>
</svg>
