<svg width="40" height="40" viewBox="0 0 40 40" fill="none" xmlns="http://www.w3.org/2000/svg">
<path d="M5.98695 10.543L3.84008 8.65557L6.68648 8.39049L7.81805 5.76541L8.94977 8.39065L11.7959 8.65564L9.64891 10.5431L10.2764 13.332L7.81781 11.8734L5.35938 13.332L5.98695 10.543ZM7.81797 24.1168C10.1973 24.1168 12.1263 22.2116 12.1263 19.8614C12.1263 17.5112 10.1973 15.606 7.81797 15.606C5.43859 15.606 3.50969 17.5113 3.50969 19.8614C3.50977 22.2116 5.43859 24.1168 7.81797 24.1168ZM13.688 25.8428C13.0745 25.0551 12.2723 24.4207 11.351 24.009C10.394 24.8085 9.15883 25.2886 7.81805 25.2886C6.47727 25.2886 5.24219 24.8085 4.28516 24.0091C2.1568 24.9599 0.664062 27.0992 0.664062 29.5705V32.3738C0.664062 32.718 0.944844 32.9988 1.28906 32.9988H10.4881V32.3646C10.4881 29.721 11.7437 27.3585 13.688 25.8428ZM35.7149 24.0092C34.7579 24.8086 33.5228 25.2887 32.182 25.2887C30.8412 25.2887 29.6061 24.8086 28.6491 24.0091C27.7278 24.4208 26.9256 25.0552 26.312 25.8428C28.2563 27.3586 29.512 29.7211 29.512 32.3646V32.9988H38.7109C39.0552 32.9988 39.3359 32.7181 39.3359 32.3738V29.5705C39.3359 27.0992 37.8432 24.9599 35.7149 24.0092ZM16.7407 13.6698L19.9998 11.7362L23.2591 13.6699L22.4272 9.97275L25.2734 7.47057L21.5003 7.11932L20 3.63916L18.4999 7.11908L14.7266 7.47049L17.5726 9.97252L16.7407 13.6698ZM32.182 24.1168C34.5614 24.1168 36.4903 22.2116 36.4903 19.8614C36.4903 17.5112 34.5615 15.606 32.182 15.606C29.8027 15.606 27.8737 17.5113 27.8737 19.8614C27.8737 22.2116 29.8026 24.1168 32.182 24.1168ZM15.253 21.318C15.253 23.9075 17.3783 26.0067 20 26.0067C22.6217 26.0067 24.747 23.9075 24.747 21.318C24.747 18.7285 22.6217 16.6292 20 16.6292C17.3783 16.6292 15.253 18.7285 15.253 21.318ZM29.7234 13.332L32.1819 11.8734L34.6405 13.332L34.013 10.5431L36.16 8.65564L33.3137 8.39065L32.182 5.76549L31.0505 8.39057L28.2041 8.65564L30.3509 10.5431L29.7234 13.332ZM23.8508 25.7677C23.7145 25.8832 23.573 25.9928 23.4266 26.0958C23.2977 27.8918 22.9579 29.2971 22.1323 30.9265L20.9377 28.2328L21.376 27.8688L21.4616 26.9978C20.9934 27.1158 20.5036 27.1785 20 27.1785C19.4964 27.1785 19.0066 27.1158 18.5384 26.9978L18.624 27.8688L19.0623 28.2328L17.8677 30.9265C17.0422 29.2972 16.7024 27.8918 16.5735 26.0958C16.4271 25.9928 16.2855 25.8832 16.1493 25.7677C13.5264 26.812 11.66 29.3808 11.66 32.3646V35.7362C11.66 36.0804 11.9408 36.3612 12.285 36.3612H27.7152C28.0594 36.3612 28.3402 36.0804 28.3402 35.7362V32.3646C28.3401 29.3809 26.4737 26.8121 23.8508 25.7677Z" fill="white"/>
</svg>
