<svg width="46" height="46" viewBox="0 0 46 46" fill="none" xmlns="http://www.w3.org/2000/svg">
<circle cx="23" cy="23" r="23" fill="white"/>
<g clip-path="url(#clip0_636_92)">
<path d="M23.1899 8.00012C17.1112 8.00012 12.166 12.9454 12.166 19.024C12.166 21.457 12.7233 23.9716 13.8223 26.4976C14.6913 28.4948 15.8996 30.5042 17.4137 32.4701C19.9809 35.8032 22.519 37.8443 22.6258 37.9297L23.1899 38.3801L23.7541 37.9296C23.8609 37.8443 26.399 35.8032 28.9662 32.47C30.4803 30.5042 31.6886 28.4947 32.5576 26.4975C33.6566 23.9716 34.2139 21.4571 34.2139 19.0239C34.2138 12.9454 29.2685 8.00012 23.1899 8.00012ZM23.1899 22.2107C21.4327 22.2107 20.0032 20.7811 20.0032 19.024C20.0032 17.2669 21.4327 15.8373 23.1899 15.8373C24.947 15.8373 26.3766 17.2669 26.3766 19.024C26.3766 20.7811 24.947 22.2107 23.1899 22.2107ZM29.3908 19.024C29.3909 15.6047 26.6091 12.8229 23.1898 12.8229V11.0144C27.6063 11.0144 31.1994 14.6075 31.1994 19.024H29.3908Z" fill="#FF403A"/>
</g>
<defs>
<clipPath id="clip0_636_92">
<rect width="30.38" height="30.38" fill="white" transform="translate(8 8.00012)"/>
</clipPath>
</defs>
</svg>
