<svg width="70" height="70" viewBox="0 0 70 70" fill="none" xmlns="http://www.w3.org/2000/svg">
<path fill-rule="evenodd" clip-rule="evenodd" d="M40.819 38.6393C39.5499 39.2273 38.5987 40.3685 38.2623 41.8138C38.2612 41.8183 37.8361 43.6274 37.8361 43.6274C37.8357 43.629 37.8353 43.6306 37.835 43.6321C37.8225 43.6854 37.7983 43.7281 37.7581 43.7657C37.7568 43.7669 37.7555 43.7681 37.7541 43.7694L36.3938 45.0454C34.8578 46.4874 34.4707 48.6889 35.4242 50.5662C35.426 50.5698 36.261 52.2211 36.261 52.2211C36.2868 52.2733 36.2981 52.3243 36.291 52.3825C36.2907 52.3849 36.2905 52.3872 36.2902 52.3894L36.0687 54.2419L36.0684 54.2445C35.9804 54.9887 36.0658 55.7136 36.2998 56.3758C27.2235 56.3755 17.8116 56.3751 15.0931 56.3743C14.895 56.3743 14.7067 56.2887 14.5767 56.1393C14.4468 55.99 14.3876 55.7917 14.4149 55.5957C15.8807 45.5387 24.5373 37.814 34.9972 37.814C37.0182 37.814 38.9717 38.1021 40.819 38.6393ZM34.9972 36.4415C29.2056 36.4415 24.4848 31.715 24.4848 25.9233C24.4848 20.1317 29.2056 15.4054 34.9972 15.4054C40.7943 15.4054 45.5152 20.1317 45.5152 25.9233C45.5152 31.715 40.7943 36.4415 34.9972 36.4415ZM56.6856 60.4376L59.2067 65.8548C59.2441 65.9327 59.2348 66.017 59.1817 66.0825C59.1319 66.1511 59.0539 66.1823 58.9696 66.1666L55.6265 65.5834L53.9174 68.5182C53.8769 68.5899 53.802 68.6305 53.7178 68.6273C53.6336 68.6242 53.5651 68.5774 53.5276 68.4994L51.2134 63.5289C53.0759 63.89 54.9346 63.1165 55.996 61.4919L56.6856 60.4376ZM46.5139 63.5289L44.1996 68.4994C44.1653 68.5774 44.0937 68.6242 44.0094 68.6273C43.9253 68.6305 43.8503 68.5899 43.8098 68.5182L42.1039 65.5834L38.7576 66.1666C38.6733 66.1823 38.5954 66.1511 38.5456 66.0825C38.4926 66.017 38.4831 65.9327 38.5206 65.8548L41.0417 60.4376C41.3395 60.893 41.7318 61.4928 41.7318 61.4928C42.7926 63.1165 44.6513 63.89 46.5139 63.5289ZM50.3498 38.6909L51.8435 39.8105C52.2521 40.1162 52.6794 40.2721 53.1908 40.3001L55.0527 40.403C56.1659 40.4654 57.0735 41.2263 57.3261 42.3117L57.7534 44.1298C57.8689 44.6257 58.0964 45.0218 58.4707 45.3711L59.8304 46.6466C60.6444 47.4107 60.8502 48.5771 60.3451 49.572L59.503 51.2373C59.2753 51.6925 59.1942 52.1416 59.2566 52.65L59.478 54.5026C59.609 55.6097 59.0196 56.6356 57.9905 57.0754L56.2782 57.8083C55.8073 58.0079 55.4581 58.3041 55.1774 58.7314L54.1576 60.2907C53.5463 61.2264 52.436 61.6287 51.3664 61.3074L49.5793 60.768C49.0929 60.6182 48.6345 60.6182 48.1479 60.768L46.3609 61.3074C45.2912 61.6287 44.181 61.2264 43.5698 60.2907L42.55 58.7314C42.2693 58.3041 41.92 58.0079 41.449 57.8083L39.7369 57.0754C38.7108 56.6356 38.1183 55.6097 38.2492 54.5026L38.4708 52.65C38.5331 52.1416 38.452 51.6925 38.2244 51.2373L37.3823 49.572C36.8771 48.5771 37.0828 47.4107 37.8969 46.6466L39.2565 45.3711C39.6308 45.0218 39.8585 44.6257 39.9738 44.1298L40.4011 42.3117C40.6538 41.2263 41.5613 40.4654 42.6746 40.403L44.5365 40.3001C45.048 40.2721 45.4783 40.1162 45.8838 39.8105L47.3776 38.6909C48.2727 38.0235 49.4546 38.0235 50.3498 38.6909ZM48.8652 56.619C52.6158 56.619 55.6783 53.5566 55.6783 49.8027C55.6783 46.0489 52.6158 42.9865 48.8652 42.9865C45.1114 42.9865 42.049 46.0489 42.049 49.8027C42.049 53.5566 45.1114 56.619 48.8652 56.619ZM34.4922 1.73944C34.5632 1.52066 34.7672 1.37256 34.9972 1.37256C35.2273 1.37256 35.4311 1.52066 35.5022 1.73944L36.4686 4.71362C36.5397 4.9324 36.7435 5.0805 36.9737 5.0805H40.1008C40.331 5.0805 40.5348 5.22874 40.6059 5.44752C40.677 5.6663 40.5992 5.90595 40.413 6.04128L37.883 7.8794C37.6969 8.0146 37.6191 8.25424 37.6902 8.47303L38.6565 11.4472C38.7276 11.666 38.6497 11.9056 38.4636 12.041C38.2775 12.1762 38.0254 12.1762 37.8392 12.041L35.3094 10.2029C35.1232 10.0675 34.8712 10.0675 34.6851 10.2029L32.1551 12.041C31.969 12.1762 31.717 12.1762 31.5309 12.041C31.3448 11.9056 31.2668 11.666 31.3379 11.4472L32.3043 8.47303C32.3754 8.25424 32.2976 8.0146 32.1113 7.8794L29.5814 6.04128C29.3953 5.90595 29.3175 5.6663 29.3886 5.44752C29.4596 5.22874 29.6635 5.0805 29.8936 5.0805H33.0208C33.2508 5.0805 33.4548 4.9324 33.5259 4.71362L34.4922 1.73944ZM16.5698 9.58383C16.4654 9.37891 16.5048 9.12993 16.6674 8.96728C16.8302 8.80464 17.079 8.76525 17.2841 8.8697L20.0704 10.2893C20.2754 10.3938 20.5243 10.3544 20.6869 10.1917L22.8982 7.98042C23.0609 7.81777 23.3099 7.77838 23.5148 7.88283C23.7198 7.98728 23.8342 8.21183 23.7982 8.43899L23.309 11.5276C23.2731 11.7549 23.3874 11.9795 23.5925 12.0839L26.3787 13.5037C26.5838 13.6081 26.6981 13.8327 26.6622 14.0599C26.6262 14.2871 26.4481 14.4653 26.2208 14.5013L23.1321 14.9904C22.9048 15.0265 22.7267 15.2047 22.6907 15.432L22.2015 18.5206C22.1654 18.7478 21.9873 18.9261 21.76 18.962C21.5328 18.998 21.3083 18.8837 21.2038 18.6786L19.7841 15.8923C19.6796 15.6873 19.4551 15.5728 19.2279 15.6089L16.1391 16.0981C15.912 16.1341 15.6874 16.0196 15.583 15.8147C15.4785 15.6097 15.5179 15.3608 15.6805 15.1981L17.8919 12.9868C18.0545 12.8241 18.0939 12.5752 17.9894 12.3702L16.5698 9.58383ZM9.44354 27.8037C9.22476 27.7326 9.07666 27.5288 9.07666 27.2986C9.07666 27.0686 9.22476 26.8648 9.44354 26.7937L12.4177 25.8273C12.6365 25.7562 12.7846 25.5523 12.7846 25.3223V22.1951C12.7846 21.965 12.9328 21.7611 13.1516 21.69C13.3704 21.6189 13.6101 21.6969 13.7452 21.883L15.5834 24.4129C15.7187 24.599 15.9583 24.6769 16.1771 24.6058L19.1513 23.6394C19.3701 23.5683 19.6097 23.6461 19.7449 23.8324C19.8803 24.0185 19.8803 24.2705 19.7449 24.4566L17.9068 26.9865C17.7716 27.1726 17.7716 27.4246 17.9068 27.6109L19.7449 30.1408C19.8803 30.3269 19.8803 30.5789 19.7449 30.765C19.6097 30.9511 19.3701 31.0291 19.1513 30.958L16.1771 29.9916C15.9583 29.9205 15.7187 29.9984 15.5834 30.1846L13.7452 32.7144C13.6101 32.9006 13.3704 32.9785 13.1516 32.9074C12.9328 32.8363 12.7846 32.6324 12.7846 32.4023V29.2751C12.7846 29.0451 12.6365 28.8412 12.4177 28.7701L9.44354 27.8037ZM52.7121 8.86572C52.917 8.76127 53.166 8.80066 53.3286 8.96344C53.4912 9.12609 53.5308 9.37493 53.4263 9.57999L52.0066 12.3663C51.9021 12.5713 51.9415 12.8202 52.1043 12.983L54.3155 15.1941C54.4781 15.3568 54.5176 15.6058 54.4132 15.8107C54.3087 16.0157 54.0842 16.1301 53.8569 16.0941L50.7682 15.6049C50.541 15.569 50.3164 15.6834 50.2119 15.8884L48.7923 18.6746C48.6879 18.8797 48.4633 18.9942 48.236 18.9581C48.0089 18.9221 47.8306 18.744 47.7946 18.5167L47.3054 15.428C47.2695 15.2007 47.0912 15.0226 46.864 14.9866L43.7752 14.4974C43.5481 14.4613 43.3698 14.2832 43.3338 14.056C43.2979 13.8287 43.4123 13.6042 43.6173 13.4997L46.4037 12.08C46.6086 11.9755 46.7231 11.751 46.687 11.5238L46.1978 8.43515C46.1618 8.20785 46.2763 7.9833 46.4812 7.87885C46.6863 7.7744 46.9351 7.81379 47.0978 7.97658L49.3091 10.1878C49.4717 10.3504 49.7207 10.3899 49.9256 10.2855L52.7121 8.86572ZM60.5564 26.788C60.7752 26.8591 60.9233 27.0631 60.9233 27.2931C60.9233 27.5232 60.7752 27.7271 60.5564 27.7982L57.5823 28.7645C57.3635 28.8356 57.2154 29.0396 57.2154 29.2696V32.3968C57.2154 32.6269 57.0671 32.8307 56.8484 32.9018C56.6296 32.9729 56.3899 32.8951 56.2547 32.709L54.4166 30.1789C54.2813 29.9928 54.0416 29.915 53.8229 29.9861L50.8487 30.9524C50.6299 31.0235 50.3902 30.9456 50.2551 30.7595C50.1197 30.5734 50.1197 30.3214 50.2551 30.1353L52.0932 27.6053C52.2284 27.4191 52.2284 27.1671 52.0932 26.981L50.2551 24.451C50.1197 24.2649 50.1197 24.0129 50.2551 23.8268C50.3902 23.6407 50.6299 23.5628 50.8487 23.6339L53.8229 24.6002C54.0416 24.6713 54.2813 24.5935 54.4166 24.4074L56.2547 21.8773C56.3899 21.6912 56.6296 21.6134 56.8484 21.6845C57.0671 21.7556 57.2154 21.9594 57.2154 22.1895V25.3167C57.2154 25.5467 57.3635 25.7507 57.5823 25.8218L60.5564 26.788Z" fill="#FF403A"/>
</svg>
