<svg width="78" height="80" viewBox="0 0 78 80" fill="none" xmlns="http://www.w3.org/2000/svg">
<path d="M35.2079 50.6297L38.4871 52C39.1701 52.2862 39.9072 52.4203 40.6472 52.3929C41.3872 52.3656 42.1123 52.1774 42.7723 51.8416L47.9921 49.1327C48.4914 48.8776 49.025 48.6962 49.5762 48.5941C48.5467 46.8317 47.1477 45.3131 45.4755 44.1427C43.8033 42.9723 41.8975 42.1778 39.8891 41.8139V20.4277H59.3188C59.5569 20.4282 59.7903 20.3615 59.9923 20.2355C60.1943 20.1094 60.3567 19.9289 60.4609 19.7148C60.565 19.5007 60.6068 19.2616 60.5813 19.0248C60.5558 18.7881 60.4642 18.5633 60.3168 18.3762L54.4713 11.0099C54.294 10.7839 54.1976 10.505 54.1976 10.2178C54.1976 9.93061 54.294 9.6517 54.4713 9.42574L60.3168 2.02772C60.4573 1.84051 60.5431 1.61807 60.5649 1.38506C60.5866 1.15204 60.5435 0.917554 60.4401 0.707581C60.3368 0.497607 60.1773 0.32035 59.9794 0.195457C59.7815 0.0705635 59.5528 0.00291177 59.3188 2.46341e-10H38.6218C38.4557 -3.28399e-06 38.2913 0.0328328 38.138 0.0966186C37.9847 0.160404 37.8455 0.253881 37.7284 0.371668C37.6114 0.489454 37.5188 0.629227 37.456 0.78294C37.3931 0.936654 37.3613 1.10127 37.3624 1.26733V41.5842C34.5369 41.5786 31.7748 42.4211 29.4335 44.0027C27.0921 45.5843 25.2793 47.8322 24.2297 50.4554C27.7752 49.0985 31.7073 49.1609 35.2079 50.6297Z" fill="#FF403A"/>
<path d="M7.1604 57.7426H0.910891C0.79231 57.7415 0.674685 57.7639 0.564731 57.8083C0.454778 57.8527 0.35465 57.9183 0.270065 58.0015C0.18548 58.0846 0.118094 58.1835 0.0717564 58.2927C0.0254185 58.4018 0.00103562 58.5191 6.68377e-10 58.6376V78.305C-4.58734e-06 78.4242 0.0236113 78.5423 0.0694843 78.6524C0.115357 78.7624 0.182579 78.8623 0.267268 78.9463C0.351957 79.0302 0.452437 79.0966 0.562906 79.1415C0.673376 79.1864 0.791646 79.209 0.910891 79.2079H7.1604C7.27898 79.2079 7.39639 79.1846 7.50595 79.1392C7.6155 79.0938 7.71504 79.0273 7.79889 78.9435C7.88274 78.8596 7.94925 78.7601 7.99463 78.6505C8.04001 78.541 8.06337 78.4235 8.06337 78.305V58.6376C8.06128 58.3995 7.96522 58.1719 7.79611 58.0043C7.62699 57.8366 7.39851 57.7426 7.1604 57.7426Z" fill="#FF403A"/>
<path d="M76.6416 50.0595C76.127 49.454 75.4225 49.0406 74.6429 48.8867C73.8633 48.7328 73.0546 48.8474 72.3485 49.2119L54.1307 58.7169C53.8286 58.9503 53.505 59.1545 53.1644 59.3268L39.9208 65.9802C39.6648 66.1196 39.3694 66.1688 39.0821 66.1199C38.7947 66.0711 38.5322 65.927 38.3366 65.7109C38.2096 65.5657 38.1174 65.3933 38.0671 65.207C38.0167 65.0206 38.0097 64.8253 38.0463 64.6358C38.083 64.4463 38.1625 64.2677 38.2787 64.1136C38.3949 63.9595 38.5447 63.834 38.7168 63.7466L46.7327 59.7307L52.7446 56.5703C53.1858 56.1808 53.5049 55.6719 53.6634 55.105C53.7883 54.6882 53.826 54.2502 53.7742 53.8182C53.7225 53.3862 53.5823 52.9695 53.3624 52.5941C52.9517 51.8857 52.2826 51.3638 51.4956 51.1379C50.7085 50.9119 49.8645 50.9995 49.1406 51.3822L43.8891 54.0991C42.9016 54.6036 41.8157 54.8863 40.7075 54.9274C39.5992 54.9684 38.4954 54.7668 37.4733 54.3367L34.2257 52.9743C31.4093 51.7892 28.251 51.7029 25.3741 52.7322C22.4971 53.7616 20.1105 55.8319 18.6851 58.5347L17.3386 61.1169C17.2303 61.3192 17.0693 61.4886 16.8728 61.6071C16.6762 61.7256 16.4513 61.7888 16.2218 61.7901H11.8653C11.6986 61.7891 11.5334 61.8212 11.3791 61.8845C11.2249 61.9478 11.0848 62.0411 10.9669 62.159C10.849 62.2769 10.7557 62.417 10.6923 62.5712C10.629 62.7255 10.597 62.8908 10.598 63.0575V73.109C10.598 73.275 10.6308 73.4394 10.6946 73.5928C10.7584 73.7461 10.8519 73.8853 10.9697 74.0023C11.0875 74.1194 11.2272 74.212 11.381 74.2748C11.5347 74.3376 11.6993 74.3694 11.8653 74.3684H43.8574C46.675 74.38 49.4323 73.5528 51.7782 71.9921L75.9683 55.1367C76.3636 54.8612 76.6972 54.5064 76.9478 54.0948C77.1984 53.6833 77.3606 53.2241 77.4239 52.7464C77.4872 52.2688 77.4504 51.7832 77.3157 51.3206C77.181 50.8579 76.9514 50.4285 76.6416 50.0595Z" fill="#FF403A"/>
</svg>
