<svg width="74" height="75" viewBox="0 0 74 75" fill="none" xmlns="http://www.w3.org/2000/svg">
<path fill-rule="evenodd" clip-rule="evenodd" d="M73.9358 30.548C73.9358 30.8048 73.825 31.0219 73.6212 31.1769L61.5916 40.0972C61.348 40.2788 61.0423 40.3055 60.7722 40.1681C60.502 40.0308 60.3425 39.7739 60.3425 39.4683V35.0923H54C51.285 35.0923 48.7559 35.9781 46.6962 37.4797C44.5437 34.4236 40.987 32.4305 36.9655 32.4305C32.9439 32.4305 29.3916 34.4236 27.2391 37.4797C25.1795 35.9781 22.6505 35.0923 19.9355 35.0923H13.593V39.4683C13.593 39.7739 13.4334 40.0308 13.1633 40.1681C12.8931 40.3055 12.5875 40.2788 12.3439 40.0972L0.314375 31.1769C0.110625 31.0219 0 30.8048 0 30.548C0 30.2911 0.110625 30.0741 0.314375 29.9191L12.3439 20.9987C12.5875 20.8172 12.8931 20.795 13.1633 20.9278C13.4334 21.0652 13.593 21.322 13.593 21.6277V26.0081H19.9355C24.5772 26.0081 28.8956 27.4962 32.4256 30.0164V13.5933H28.0452C27.7439 13.5933 27.4827 13.4337 27.3497 13.1636C27.2125 12.8934 27.2391 12.5922 27.4206 12.3486L36.3409 0.314531C36.4916 0.110781 36.713 0 36.9655 0C37.2223 0 37.4438 0.110781 37.5944 0.314531L46.5147 12.3486C46.6963 12.5922 46.723 12.8933 46.5856 13.1636C46.4527 13.4337 46.1914 13.5933 45.8902 13.5933H41.5098V30.0164C45.0398 27.4962 49.3538 26.0081 54 26.0081H60.3425V21.6277C60.3425 21.322 60.502 21.0652 60.7722 20.9278C61.0423 20.795 61.348 20.8172 61.5916 20.9987L73.6212 29.9191C73.825 30.0741 73.9358 30.2911 73.9358 30.548ZM43.3702 54.35C42.7836 54.7256 42.1613 55.0508 41.51 55.3202C41.3522 55.3853 41.1922 55.4464 41.0313 55.5052C40.9923 55.5192 40.9533 55.5331 40.9142 55.5469C40.7813 55.5938 40.6472 55.638 40.5122 55.6803C40.4767 55.6913 40.4417 55.7031 40.4063 55.7137C40.2439 55.7627 40.0803 55.8083 39.9152 55.8505C39.8727 55.8614 39.8297 55.8708 39.787 55.8812C39.6611 55.9119 39.5345 55.9405 39.4072 55.9672C39.3506 55.9789 39.2939 55.9905 39.2372 56.0016C39.1022 56.0277 38.9664 56.0512 38.8297 56.0728C38.7934 56.0786 38.7575 56.0853 38.7209 56.0906C38.5517 56.1156 38.3811 56.1364 38.2097 56.1542C38.1594 56.1594 38.1087 56.1634 38.0583 56.168C37.9267 56.18 37.7947 56.1898 37.6619 56.1975C37.6091 56.2006 37.5562 56.2037 37.5031 56.2061C37.325 56.2139 37.1461 56.2194 36.9658 56.2194C36.7855 56.2194 36.607 56.2139 36.4291 56.2061C36.3767 56.2037 36.3247 56.2005 36.2727 56.1975C36.1386 56.1898 36.0053 56.1798 35.8723 56.1677C35.8236 56.1633 35.7748 56.1594 35.7262 56.1544C35.5534 56.1364 35.3812 56.1155 35.2108 56.0902C35.1794 56.0855 35.1484 56.0797 35.117 56.0747C34.9747 56.0523 34.8333 56.0277 34.6927 56.0003C34.6397 55.9902 34.5869 55.9792 34.5341 55.9683C34.4011 55.9406 34.2689 55.9106 34.1375 55.8786C34.0998 55.8694 34.0617 55.8611 34.0242 55.8514C33.8566 55.8088 33.6905 55.7625 33.5258 55.7127C33.4947 55.7033 33.4641 55.693 33.4331 55.6833C33.2933 55.6397 33.1544 55.5937 33.0167 55.5452C32.9806 55.5323 32.9444 55.5197 32.9084 55.5066C32.7461 55.4475 32.585 55.3861 32.4259 55.3202C31.7747 55.0509 31.1523 54.7258 30.5656 54.3502C22.137 57.0564 16.0338 64.958 16.0338 74.2858H57.9023C57.9023 64.958 51.7989 57.0564 43.3703 54.3502L43.3702 54.35ZM46.8072 44.3225C46.8072 38.9058 42.3869 34.4809 36.9656 34.4809C31.5444 34.4809 27.1284 38.9056 27.1284 44.3225C27.1284 49.7394 31.5488 54.1641 36.9656 54.1641C42.3825 54.1641 46.8072 49.7438 46.8072 44.3225Z" fill="#FF403A"/>
</svg>
