<svg width="65" height="65" viewBox="0 0 65 65" fill="none" xmlns="http://www.w3.org/2000/svg">
<path fill-rule="evenodd" clip-rule="evenodd" d="M16.0901 15.6562H30.4148C30.9414 15.6562 31.3708 15.2268 31.3708 14.7002V13.2847C31.3708 13.2206 31.423 13.1682 31.4873 13.1682H40.4905C40.9523 13.1682 41.3334 13.5492 41.3334 14.011V33.8401C41.3334 33.8786 41.3504 33.9119 41.3818 33.9345C41.4131 33.9571 41.45 33.9628 41.4867 33.9505L43.0012 33.4456C43.0496 33.4295 43.0809 33.3861 43.0809 33.3351V14.011C43.0809 12.5846 41.917 11.4207 40.4905 11.4207H31.4873C31.4232 11.4207 31.3708 11.473 31.3708 11.5372V12.2945C31.3708 10.8782 30.2121 9.71953 28.7958 9.71953H26.7459C26.7083 9.71953 26.6761 9.70353 26.6532 9.67372C26.6304 9.64379 26.6236 9.60843 26.6336 9.57218C27.2372 7.3745 25.5913 5.14172 23.2525 5.14172C20.9136 5.14172 19.2677 7.37489 19.8713 9.57218C19.8812 9.60843 19.8744 9.64379 19.8517 9.6736C19.829 9.7034 19.7966 9.7194 19.759 9.7194H17.7091C16.2928 9.7194 15.1341 10.8781 15.1341 12.2944V11.5371C15.1341 11.473 15.0819 11.4206 15.0176 11.4206H6.01439C4.58794 11.4206 3.42407 12.5846 3.42407 14.0109V56.7842C3.42407 58.2106 4.58794 59.3745 6.01439 59.3745H40.4905C41.533 59.3745 42.4523 58.7491 42.8602 57.8287C42.8741 57.7973 42.874 57.765 42.8599 57.7336C42.8459 57.7024 42.8216 57.6808 42.789 57.6704L41.3216 57.2057C41.2716 57.1899 41.2192 57.2082 41.1899 57.2517C41.0363 57.4795 40.7771 57.6268 40.4907 57.6268H6.01439C5.55259 57.6268 5.17156 57.2457 5.17156 56.7839V14.011C5.17156 13.5492 5.55246 13.1682 6.01439 13.1682H15.0178C15.0819 13.1682 15.1343 13.2204 15.1343 13.2847V14.7002C15.1341 15.2266 15.5636 15.6562 16.0901 15.6562ZM43.0854 56.2274C43.082 56.2266 43.079 56.2257 43.0758 56.2247L41.3381 55.658C41.3348 55.657 41.3319 55.6559 41.3287 55.6545C40.0314 55.1046 38.863 54.3097 37.8815 53.3281C33.6354 49.082 33.6354 42.1981 37.8815 37.952C38.863 36.9705 40.0314 36.1757 41.3287 35.6256C41.3319 35.6243 41.3348 35.6233 41.3381 35.6221L43.0761 35.0553C43.0794 35.0542 43.0823 35.0533 43.0856 35.0526C43.8834 34.8661 44.7149 34.7674 45.5695 34.7674C46.0521 34.7674 46.4433 35.1586 46.4433 35.6412V44.6497C46.4433 44.7139 46.4956 44.7662 46.5598 44.7662H55.5683C56.0509 44.7662 56.4421 45.1575 56.4421 45.64C56.4421 52.6616 49.8891 57.8179 43.0854 56.2274ZM49.3456 30.9914V40.9902C49.3456 41.4728 49.7368 41.8641 50.2194 41.8641H60.2183C60.7008 41.8641 61.0921 41.4728 61.0921 40.9902C61.0921 34.9857 56.2241 30.1177 50.2196 30.1177C49.7369 30.1176 49.3456 30.5088 49.3456 30.9914ZM15.45 49.1862L14.8091 49.8253C14.7845 49.8499 14.7537 49.8615 14.719 49.859C14.6843 49.8567 14.6554 49.8412 14.6344 49.8135L13.8166 48.7425C13.5245 48.3598 12.9774 48.2865 12.5947 48.5786C12.2119 48.8708 12.1387 49.4179 12.4308 49.8006L13.9328 51.7675C14.2233 52.1479 14.7659 52.2226 15.1481 51.9364C15.1527 51.933 15.1563 51.9299 15.1605 51.9257L19.6548 47.454C19.6888 47.4201 19.7372 47.4105 19.7816 47.429C19.826 47.4474 19.8534 47.4884 19.8534 47.5366V52.3566C19.8534 53.0407 19.2936 53.6004 18.6095 53.6004H11.4606C10.7765 53.6004 10.2167 53.0407 10.2167 52.3566V46.333C10.2167 45.6487 10.7765 45.089 11.4606 45.089H17.0432C17.0752 45.089 17.1027 45.0776 17.1254 45.055L19.6956 42.4945C20.0367 42.1551 20.5885 42.1567 20.9277 42.4979C21.267 42.839 21.2655 43.3908 20.9243 43.73L15.45 49.1862ZM32.2001 48.4709C32.6827 48.4709 33.0739 48.8621 33.0739 49.3447C33.0739 49.8273 32.6827 50.2185 32.2001 50.2185H24.0073C23.5247 50.2185 23.1335 49.8273 23.1335 49.3447C23.1335 48.8621 23.5247 48.4709 24.0073 48.4709H32.2001ZM34.4112 35.918C34.8938 35.918 35.285 36.3092 35.285 36.7918C35.285 37.2744 34.8938 37.6656 34.4112 37.6656H24.0073C23.5247 37.6656 23.1335 37.2744 23.1335 36.7918C23.1335 36.3092 23.5247 35.918 24.0073 35.918H34.4112ZM36.2883 23.365C36.7709 23.365 37.1621 23.7562 37.1621 24.2388C37.1621 24.7213 36.7709 25.1126 36.2883 25.1126H24.0073C23.5247 25.1126 23.1335 24.7213 23.1335 24.2388C23.1335 23.7562 23.5247 23.365 24.0073 23.365H36.2883ZM11.4606 28.4946C10.7765 28.4946 10.2167 27.9349 10.2167 27.2508V21.2271C10.2167 20.5429 10.7765 19.9831 11.4606 19.9831H17.0432C17.0752 19.9831 17.1027 19.9718 17.1254 19.9492L19.6956 17.3887C20.0367 17.0495 20.5885 17.0509 20.9277 17.392C21.267 17.7332 21.2655 18.285 20.9243 18.6242L14.8092 24.7195C14.7846 24.744 14.7539 24.7555 14.7192 24.7532C14.6845 24.7509 14.6556 24.7353 14.6345 24.7077L13.8167 23.6367C13.5246 23.254 12.9775 23.1807 12.5948 23.4728C12.2121 23.765 12.1388 24.3121 12.4309 24.6948L13.933 26.6617C14.2234 27.0421 14.766 27.1168 15.1482 26.8306C15.1528 26.8271 15.1565 26.824 15.1606 26.8199L19.6549 22.3482C19.689 22.3142 19.7374 22.3047 19.7818 22.3231C19.8261 22.3416 19.8535 22.3826 19.8535 22.4308V27.2508C19.8535 27.9349 19.2938 28.4946 18.6096 28.4946H11.4606ZM18.6094 32.5359C19.2936 32.5359 19.8534 33.0957 19.8534 33.7799V39.8037C19.8534 40.4878 19.2936 41.0477 18.6094 41.0477H11.4606C10.7765 41.0477 10.2167 40.4879 10.2167 39.8037V33.7799C10.2167 33.0958 10.7765 32.5359 11.4606 32.5359H18.6094ZM15.1174 35.4739L16.1966 34.3946C16.5378 34.0535 17.091 34.0535 17.4322 34.3946C17.7734 34.7358 17.7734 35.2891 17.4322 35.6302L16.353 36.7095C16.3076 36.7549 16.3076 36.8288 16.353 36.8742L17.4322 37.9535C17.7734 38.2946 17.7734 38.8479 17.4322 39.1891C17.091 39.5302 16.5378 39.5302 16.1966 39.1891L15.1174 38.1099C15.0719 38.0644 14.998 38.0644 14.9526 38.1099L13.8734 39.1891C13.5322 39.5302 12.9789 39.5302 12.6378 39.1891C12.2966 38.8479 12.2966 38.2946 12.6378 37.9535L13.717 36.8742C13.7624 36.8288 13.7624 36.7549 13.717 36.7095L12.6378 35.6302C12.2966 35.2891 12.2966 34.7358 12.6378 34.3946C12.9789 34.0535 13.5322 34.0535 13.8734 34.3946L14.9526 35.4739C14.998 35.5191 15.0719 35.5191 15.1174 35.4739Z" fill="white"/>
</svg>
