<svg width="61" height="61" viewBox="0 0 61 61" fill="none" xmlns="http://www.w3.org/2000/svg">
<path fill-rule="evenodd" clip-rule="evenodd" d="M58.501 25.2331C52.5451 25.2331 49.5569 18.0177 53.768 13.8065C54.5437 13.0308 54.5437 11.7725 53.768 10.9968L49.4909 6.71966C48.7151 5.9439 47.4569 5.9439 46.6812 6.71966C42.47 10.9308 35.2546 7.94251 35.2546 1.98664C35.2546 0.88904 34.365 0 33.268 0H27.2195C26.1225 0 25.2329 0.88904 25.2329 1.98664C25.2329 7.94982 18.0229 10.936 13.8064 6.71966C13.0306 5.9439 11.7725 5.9439 10.9968 6.71966L6.71966 10.9968C5.9439 11.7725 5.9439 13.0306 6.71966 13.8065C10.9308 18.0177 7.94251 25.2331 1.98664 25.2331C0.88904 25.2331 0 26.1228 0 27.2198V30.2441H15.4641C15.4641 22.0816 22.0812 15.4644 30.2437 15.4644C38.4063 15.4644 45.0234 22.0815 45.0234 30.244H60.4876V27.2196C60.4876 26.1228 59.5986 25.2331 58.501 25.2331ZM55.5311 43.3305H52.3662V32.0082H50.602V44.2126C50.602 44.6998 50.9969 45.0947 51.4841 45.0947H55.5311C55.8903 46.0719 56.8294 46.7691 57.9311 46.7691C59.343 46.7691 60.4876 45.6245 60.4876 44.2126C60.4876 42.8007 59.343 41.6561 57.9311 41.6561C56.8294 41.6561 55.8903 42.3532 55.5311 43.3305ZM4.9567 45.0947H9.00369C9.49087 45.0947 9.8858 44.6998 9.8858 44.2126V32.0082H8.12158V43.3305H4.9567C4.59743 42.3532 3.65836 41.6561 2.5566 41.6561C1.14473 41.6561 0.000126067 42.8007 0.000126067 44.2126C0.000126067 45.6245 1.14473 46.7691 2.5566 46.7691C3.65836 46.7691 4.59743 46.0719 4.9567 45.0947ZM11.4038 58.8134C11.0445 59.7906 10.1056 60.4878 9.00369 60.4878C7.59181 60.4878 6.44721 59.3432 6.44721 57.9313C6.44721 56.5194 7.59181 55.3748 9.00369 55.3748C10.1056 55.3748 11.0445 56.0719 11.4038 57.0492H19.6238V32.0082H21.388V57.9313C21.388 58.4184 20.9931 58.8134 20.5059 58.8134H11.4038ZM31.126 48.6718V32.0082H29.3618V48.6718C28.3845 49.031 27.6874 49.97 27.6874 51.0719C27.6874 52.4837 28.832 53.6283 30.2439 53.6283C31.6558 53.6283 32.8004 52.4837 32.8004 51.0719C32.8004 49.9701 32.1032 49.031 31.126 48.6718ZM39.0998 32.0082H40.864V57.0492H49.084C49.4432 56.0719 50.3822 55.3748 51.4841 55.3748C52.8959 55.3748 54.0405 56.5194 54.0405 57.9313C54.0405 59.3432 52.8959 60.4878 51.4841 60.4878C50.3822 60.4878 49.4432 59.7906 49.084 58.8134H39.9819C39.4947 58.8134 39.0998 58.4184 39.0998 57.9313V32.0082ZM40.864 30.244H19.6238C19.6238 24.3787 24.3786 19.6239 30.2439 19.6239C36.1091 19.6239 40.864 24.3787 40.864 30.244Z" fill="white"/>
</svg>
