<svg width="65" height="65" viewBox="0 0 65 65" fill="none" xmlns="http://www.w3.org/2000/svg">
<path d="M54.4567 58.6294C54.7854 60.0903 53.6777 61.4781 52.1803 61.4781H48.5282C50.0256 61.4781 51.1334 60.0903 50.8047 58.6294L48.7108 45.1289C48.3335 43.4855 48.7595 41.7203 49.8916 40.4543C53.4586 36.4979 55.6254 31.2511 55.6254 25.493C55.6254 13.7089 46.5318 4.03095 34.979 3.11793C48.2118 2.05883 59.2775 12.4915 59.2775 25.493C59.2775 31.2511 57.1106 36.4979 53.5437 40.4543C52.4116 41.7203 51.9855 43.4855 52.3629 45.1289L54.4567 58.6294Z" fill="white"/>
<path d="M52.18 62.0869H48.5279C48.1915 62.0869 47.9192 61.8147 47.9192 61.4783C47.9192 61.1418 48.1915 60.8696 48.5279 60.8696C49.0552 60.8696 49.5461 60.6342 49.8749 60.2229C50.2042 59.8103 50.3266 59.2789 50.2107 58.763L48.1095 45.2211C47.6898 43.4022 48.1832 41.4513 49.438 40.0485C53.0359 36.0576 55.0165 30.8886 55.0165 25.4925C55.0165 14.176 46.1937 4.6143 34.9307 3.72387C34.6145 3.69891 34.3702 3.43499 34.3702 3.11757C34.3702 2.80015 34.6139 2.53623 34.9301 2.51127C41.458 1.98462 47.6803 4.13283 52.4623 8.54694C57.1802 12.9028 59.886 19.0788 59.886 25.4925C59.886 31.1905 57.7942 36.6484 53.9959 40.8616C53.0056 41.9684 52.6169 43.5139 52.9563 44.9916L55.0552 58.5169C55.2448 59.3883 55.035 60.2859 54.4774 60.9825C53.9163 61.6851 53.0787 62.0869 52.18 62.0869ZM50.9121 60.8696H52.18C52.7072 60.8696 53.1982 60.6342 53.5269 60.2229C53.8562 59.8103 53.9787 59.2789 53.8628 58.763C53.8598 58.7499 53.8574 58.7368 53.855 58.7226L51.7615 45.2211C51.3419 43.4022 51.8352 41.4513 53.09 40.0485C56.688 36.0576 58.6686 30.8886 58.6686 25.4925C58.6686 19.4176 56.1055 13.5674 51.6367 9.44213C48.947 6.95867 45.7752 5.23487 42.3478 4.34682C50.5281 7.92756 56.2339 16.1424 56.2339 25.4925C56.2339 31.1905 54.1422 36.6484 50.3438 40.8616C49.3536 41.9684 48.9648 43.5139 49.3042 44.9916L51.4061 58.5371C51.5862 59.3301 51.4084 60.1848 50.9121 60.8696Z" fill="white"/>
<path d="M48.5279 62.0869H27.5897C26.0894 62.0869 24.8072 60.9183 24.6705 59.4275L24.2955 51.6157L17.3973 54.4095C16.1698 55.03 14.6802 54.9682 13.4611 54.2181C12.2384 53.4667 11.5084 52.1614 11.5084 50.7289V48.4297C10.7084 48.2276 9.56352 47.8115 9.28177 47.0423C8.99764 46.329 9.49635 45.2365 9.95286 44.4614C9.26869 44.157 8.62197 43.7504 8.45969 43.2642C8.1821 42.4225 8.874 40.9496 9.50229 39.863L7.95087 40.1067C6.81436 40.2886 5.72242 39.8107 5.0971 38.8477C4.47593 37.8919 4.4801 36.7055 5.1072 35.7496L10.2423 27.8273C10.193 27.4017 10.1561 26.9832 10.1449 26.5553C9.6182 15.3197 17.4365 5.154 28.3321 2.92258C30.5665 2.47201 32.8193 2.33054 35.0276 2.51124C46.9188 3.45042 56.2339 13.5447 56.2339 25.4924C56.2339 31.1905 54.1421 36.6484 50.3438 40.8616C49.3535 41.9684 48.9648 43.5139 49.3042 44.9916L51.4031 58.5169C51.5927 59.3883 51.3829 60.2858 50.8253 60.9825C50.2642 61.6851 49.4267 62.0869 48.5279 62.0869ZM24.8625 50.1202C24.9772 50.1202 25.0914 50.1523 25.1906 50.2165C25.3565 50.3223 25.4611 50.503 25.4706 50.6991L25.8849 59.3419C25.9628 60.1872 26.7123 60.8695 27.5897 60.8695H48.5279C49.0552 60.8695 49.5461 60.6342 49.8748 60.2228C50.2042 59.8103 50.3266 59.2789 50.2107 58.7629C50.2077 58.7499 50.2053 58.7368 50.203 58.7225L48.1094 45.221C47.6898 43.4021 48.1831 41.4513 49.438 40.0484C53.0359 36.0576 55.0165 30.8885 55.0165 25.4924C55.0165 14.176 46.1936 4.61428 34.9307 3.72385C32.8342 3.55384 30.6961 3.68699 28.5746 4.11616C18.2628 6.22751 10.8623 15.8558 11.3616 26.5113C11.3741 26.9916 11.4205 27.4457 11.4793 27.9129C11.5013 28.0865 11.4472 28.2612 11.3319 28.392C11.3265 28.3979 11.3218 28.4027 11.3164 28.4086L6.12662 36.4142C5.76106 36.9718 5.75868 37.6316 6.1177 38.1844C6.39946 38.6171 6.97901 39.0272 7.75769 38.9048L10.6347 38.453C10.8736 38.4126 11.1137 38.5232 11.2433 38.7288C11.3735 38.9345 11.3688 39.1972 11.232 39.397C10.2572 40.8295 9.48624 42.4903 9.61523 42.8814C9.71331 43.0003 10.4159 43.3641 11.0662 43.5935C11.2445 43.6577 11.3836 43.8004 11.4419 43.9799C11.5001 44.1606 11.471 44.3579 11.3634 44.5137C10.8035 45.3245 10.3446 46.3445 10.4201 46.6131C10.5384 46.8355 11.4175 47.1873 12.2307 47.3431C12.5178 47.3978 12.7258 47.6486 12.7258 47.9411V50.7289C12.7258 51.7358 13.2394 52.6524 14.0989 53.1814C14.9554 53.7081 15.9998 53.7544 16.8944 53.3015L24.6343 50.1642C24.7074 50.1344 24.7853 50.1202 24.8625 50.1202Z" fill="white"/>
<path d="M24.8709 51.3364C24.5701 51.3364 24.3092 51.1129 24.2687 50.8074C24.2247 50.4745 24.4589 50.169 24.7918 50.1238C25.0254 50.0929 30.5327 49.3011 32.0758 44.1166C32.1715 43.7957 32.5109 43.615 32.8324 43.7065C33.1546 43.8028 33.3383 44.1416 33.242 44.4638C31.4706 50.4162 25.2156 51.2972 24.9499 51.3316C24.9232 51.3352 24.897 51.3364 24.8709 51.3364Z" fill="white"/>
<path d="M23.3776 33.844C23.2124 33.844 23.0477 33.7774 22.9271 33.6442C22.7012 33.3958 22.7196 33.0106 22.9681 32.7847L24.0517 31.7992C24.3548 31.5127 24.5337 31.1013 24.5337 30.6793V29.1208C24.5337 28.7843 24.806 28.5121 25.1424 28.5121C25.4789 28.5121 25.7511 28.7843 25.7511 29.1208V30.6793C25.7511 31.4354 25.4331 32.1689 24.8791 32.692L23.7872 33.6859C23.6707 33.7917 23.5238 33.844 23.3776 33.844Z" fill="white"/>
<path d="M22.215 36.5069C21.0047 36.5069 20.0204 35.5226 20.0204 34.3124C20.0204 33.1021 21.0047 32.1178 22.215 32.1178C23.4252 32.1178 24.4095 33.1021 24.4095 34.3124C24.4095 35.5226 23.4252 36.5069 22.215 36.5069ZM22.215 33.3352C21.6758 33.3352 21.2377 33.7738 21.2377 34.3124C21.2377 34.8509 21.6758 35.2896 22.215 35.2896C22.7541 35.2896 23.1922 34.8509 23.1922 34.3124C23.1922 33.7738 22.7541 33.3352 22.215 33.3352Z" fill="white"/>
<path d="M27.4071 36.8993C27.2431 36.8993 27.0796 36.8327 26.9595 36.7031C26.7319 36.4558 26.7473 36.0706 26.9946 35.8424L28.0776 34.845C28.3944 34.5549 28.5757 34.1459 28.5757 33.7227V29.1208C28.5757 28.7843 28.848 28.5121 29.1844 28.5121C29.5209 28.5121 29.7931 28.7843 29.7931 29.1208V33.7227C29.7931 34.4871 29.468 35.223 28.9015 35.7425L27.8196 36.7388C27.7025 36.8458 27.5545 36.8993 27.4071 36.8993Z" fill="white"/>
<path d="M26.2522 39.5539C25.042 39.5539 24.0576 38.5696 24.0576 37.3594C24.0576 36.1491 25.042 35.1648 26.2522 35.1648C27.4624 35.1648 28.4468 36.1491 28.4468 37.3594C28.4468 38.5696 27.4624 39.5539 26.2522 39.5539ZM26.2522 36.3822C25.7131 36.3822 25.275 36.8208 25.275 37.3594C25.275 37.8979 25.7131 38.3366 26.2522 38.3366C26.7913 38.3366 27.2294 37.8979 27.2294 37.3594C27.2294 36.8208 26.7913 36.3822 26.2522 36.3822Z" fill="white"/>
<path d="M43.8415 33.844C43.6953 33.844 43.5484 33.7917 43.4319 33.6859L42.3483 32.7003C41.7878 32.1856 41.4674 31.4497 41.4674 30.6793V29.1208C41.4674 28.7843 41.7396 28.5121 42.0761 28.5121C42.4125 28.5121 42.6848 28.7843 42.6848 29.1208V30.6793C42.6848 31.1097 42.8613 31.5186 43.1692 31.8016L44.251 32.7847C44.4995 33.0106 44.5179 33.3958 44.2921 33.6442C44.1714 33.7774 44.0067 33.844 43.8415 33.844Z" fill="white"/>
<path d="M45.0012 36.5069C43.791 36.5069 42.8066 35.5226 42.8066 34.3124C42.8066 33.1021 43.791 32.1178 45.0012 32.1178C46.2114 32.1178 47.1958 33.1021 47.1958 34.3124C47.1958 35.5226 46.2114 36.5069 45.0012 36.5069ZM45.0012 33.3352C44.4621 33.3352 44.024 33.7738 44.024 34.3124C44.024 34.8509 44.4621 35.2896 45.0012 35.2896C45.5403 35.2896 45.9784 34.8509 45.9784 34.3124C45.9784 33.7738 45.5403 33.3352 45.0012 33.3352Z" fill="white"/>
<path d="M39.7995 36.8874C39.6521 36.8874 39.5041 36.8339 39.3876 36.7269L38.3165 35.7413C37.7506 35.2218 37.426 34.4859 37.426 33.7227V29.1208C37.426 28.7843 37.6983 28.5121 38.0347 28.5121C38.3711 28.5121 38.6434 28.7843 38.6434 29.1208V33.7227C38.6434 34.1459 38.8241 34.5549 39.1397 34.845L40.2114 35.8305C40.4593 36.0588 40.4748 36.4439 40.2477 36.6912C40.1276 36.8208 39.9636 36.8874 39.7995 36.8874Z" fill="white"/>
<path d="M40.9634 39.5539C39.7531 39.5539 38.7688 38.5696 38.7688 37.3594C38.7688 36.1491 39.7531 35.1648 40.9634 35.1648C42.1736 35.1648 43.1579 36.1491 43.1579 37.3594C43.1579 38.5696 42.1736 39.5539 40.9634 39.5539ZM40.9634 36.3822C40.4242 36.3822 39.9862 36.8208 39.9862 37.3594C39.9862 37.8979 40.4242 38.3366 40.9634 38.3366C41.5025 38.3366 41.9406 37.8979 41.9406 37.3594C41.9406 36.8208 41.5025 36.3822 40.9634 36.3822Z" fill="white"/>
<path d="M33.7252 34.0877C33.3888 34.0877 33.1165 33.8154 33.1165 33.479V29.1208C33.1165 28.7843 33.3888 28.5121 33.7252 28.5121C34.0616 28.5121 34.3339 28.7843 34.3339 29.1208V33.479C34.3339 33.8154 34.0616 34.0877 33.7252 34.0877Z" fill="white"/>
<path d="M33.724 37.2583C32.5138 37.2583 31.5294 36.2739 31.5294 35.0637C31.5294 33.8535 32.5138 32.8691 33.724 32.8691C34.9342 32.8691 35.9186 33.8535 35.9186 35.0637C35.9186 36.2739 34.9342 37.2583 33.724 37.2583ZM33.724 34.0865C33.1849 34.0865 32.7468 34.5252 32.7468 35.0637C32.7468 35.6023 33.1849 36.0409 33.724 36.0409C34.2631 36.0409 34.7012 35.6023 34.7012 35.0637C34.7012 34.5252 34.2631 34.0865 33.724 34.0865Z" fill="white"/>
<path d="M42.318 29.7354H23.4335C20.8669 29.7354 18.7787 27.6467 18.7787 25.08C18.7787 23.5072 19.596 22.0295 20.8972 21.1854C20.814 20.8371 20.7718 20.4721 20.7718 20.0976C20.7718 18.0849 22.045 16.3302 23.918 15.6918C24.4096 12.0933 27.5356 9.33398 31.2162 9.33398C33.7199 9.33398 36.0446 10.606 37.3975 12.6841C37.8635 12.5569 38.3432 12.4927 38.83 12.4927C41.9079 12.4927 44.4116 14.9928 44.4116 18.0647C44.4116 18.6116 44.3367 19.137 44.1875 19.6364C46.1918 20.4008 47.5406 22.3195 47.5406 24.5129C47.5406 27.3923 45.198 29.7354 42.318 29.7354ZM31.2162 10.5513C28.0248 10.5513 25.3321 13.036 25.0866 16.209C25.0664 16.4717 24.8786 16.6916 24.6224 16.7535C23.0721 17.1267 21.9891 18.5022 21.9891 20.0976C21.9891 20.5101 22.0569 20.9025 22.19 21.2615C22.2982 21.5527 22.1686 21.8797 21.8898 22.0188C20.7397 22.5894 19.996 23.7913 19.996 25.08C19.996 26.9762 21.538 28.5181 23.4335 28.5181H42.318C44.5263 28.5181 46.3232 26.7218 46.3232 24.5129C46.3232 22.6548 45.0607 21.0534 43.2525 20.6195C43.0759 20.5767 42.9279 20.4578 42.8483 20.2962C42.768 20.1333 42.765 19.9431 42.8393 19.7778C43.0747 19.2536 43.1942 18.677 43.1942 18.0647C43.1942 15.6633 41.2362 13.7101 38.83 13.7101C38.3182 13.7101 37.8171 13.8004 37.3398 13.9799C37.0581 14.0833 36.7407 13.9704 36.5944 13.7065C35.5084 11.7604 33.4476 10.5513 31.2162 10.5513Z" fill="white"/>
</svg>
