<svg width="25" height="25" viewBox="0 0 25 25" fill="none" xmlns="http://www.w3.org/2000/svg">
<circle cx="12.5" cy="12.5" r="12.5" fill="#FF403A"/>
<path d="M6.83812 11.8964C6.55673 11.8972 6.28131 11.9777 6.04373 12.1284C5.80615 12.2792 5.61612 12.4942 5.49561 12.7485C5.37511 13.0028 5.32906 13.286 5.3628 13.5653C5.39654 13.8447 5.50868 14.1088 5.68625 14.3271L9.47168 18.9642C9.60665 19.1318 9.77966 19.2648 9.97634 19.3521C10.173 19.4394 10.3877 19.4785 10.6025 19.4662C11.062 19.4415 11.4768 19.1957 11.7413 18.7916L19.6046 6.12776C19.6059 6.12566 19.6072 6.12355 19.6086 6.12149C19.6824 6.0082 19.6585 5.7837 19.5062 5.64267C19.4643 5.60394 19.415 5.57419 19.3612 5.55524C19.3075 5.53629 19.2504 5.52855 19.1935 5.5325C19.1366 5.53644 19.0812 5.55199 19.0305 5.57818C18.9799 5.60437 18.9352 5.64065 18.8991 5.68478C18.8963 5.68825 18.8933 5.69167 18.8904 5.69503L10.9601 14.655C10.9299 14.6891 10.8933 14.7169 10.8523 14.7367C10.8113 14.7565 10.7668 14.768 10.7213 14.7704C10.6758 14.7729 10.6303 14.7663 10.5875 14.751C10.5446 14.7357 10.5051 14.7121 10.4715 14.6815L7.83955 12.2864C7.56621 12.0358 7.20894 11.8967 6.83812 11.8964Z" fill="white"/>
</svg>
