<svg width="40" height="40" viewBox="0 0 40 40" fill="none" xmlns="http://www.w3.org/2000/svg">
<path d="M32.9688 0V2.34375H35.9948L32.122 6.20844C28.1037 10.2184 23.4065 13.3517 18.1608 15.5214C12.915 17.6911 7.3768 18.7913 1.7 18.7913H0V21.135H1.7C7.6857 21.135 13.5253 19.975 19.0566 17.6873C24.5878 15.3995 29.5407 12.0957 33.7777 7.86758L37.6562 3.99688V7.03125H40V0L32.9688 0Z" fill="white"/>
<path d="M12.5521 35.3123V23.4575L11.1539 23.7328C8.63695 24.2284 6.05305 24.5263 3.47383 24.6185L2.34375 24.6589V35.3123H12.5521Z" fill="white"/>
<path d="M25.1042 35.3123V18.7334L23.4131 19.5693C22.4228 20.0587 21.4092 20.5184 20.4002 20.9357C18.8773 21.5657 17.3063 22.1248 15.7309 22.5977L14.8959 22.8483V35.3123H25.1042Z" fill="white"/>
<path d="M37.6562 35.3123V9.01709L35.6705 10.934C33.3137 13.2092 30.7297 15.2472 27.9903 16.9915L27.4479 17.3369V35.3123H37.6562Z" fill="white"/>
<path d="M0 37.6562H40V40H0V37.6562Z" fill="white"/>
<path d="M9.375 2.34375H21.7578V4.6875H9.375V2.34375Z" fill="white"/>
<path d="M2.34375 2.34375H7.03125V4.6875H2.34375V2.34375Z" fill="white"/>
<path d="M2.34375 7.03125H14.7266V9.375H2.34375V7.03125Z" fill="white"/>
<path d="M17.0703 7.03125H21.7578V9.375H17.0703V7.03125Z" fill="white"/>
<path d="M2.34375 11.7188H11.7188V14.0625H2.34375V11.7188Z" fill="white"/>
</svg>
