<svg width="46" height="46" viewBox="0 0 46 46" fill="none" xmlns="http://www.w3.org/2000/svg">
<circle cx="23" cy="23" r="23" fill="white"/>
<g clip-path="url(#clip0_636_85)">
<path d="M38.181 14.8821L29.5498 23.5133L37.9681 31.9378C38.2229 31.4996 38.3798 30.9973 38.3798 30.4549V15.925C38.3798 15.5567 38.304 15.2078 38.181 14.8821Z" fill="#FF403A"/>
<path d="M35.4081 12.953H10.9721C10.478 12.953 10.0188 13.0857 9.6084 13.2999L22.5825 26.2739C22.9589 26.6503 23.6127 26.6503 23.9826 26.2739L36.8956 13.3672C36.4564 13.1107 35.9525 12.953 35.4081 12.953Z" fill="#FF403A"/>
<path d="M8.24927 14.7411C8.09061 15.1043 8 15.5038 8 15.925V30.4548C8 30.9887 8.15267 31.483 8.4001 31.9164L16.9093 23.4011L8.24927 14.7411Z" fill="#FF403A"/>
<path d="M28.1431 24.9201L25.389 27.6807C24.2322 28.8244 22.3579 28.8431 21.1821 27.6807L18.3158 24.8078L9.89893 33.2187C10.2327 33.3487 10.5926 33.4268 10.9718 33.4268H35.4079C35.7778 33.4268 36.1286 33.3506 36.4556 33.2264L28.1431 24.9201Z" fill="#FF403A"/>
</g>
<defs>
<clipPath id="clip0_636_85">
<rect width="30.38" height="30.38" fill="white" transform="translate(8 7.99988)"/>
</clipPath>
</defs>
</svg>
