<svg width="214" height="58" viewBox="0 0 214 58" fill="none" xmlns="http://www.w3.org/2000/svg">
<g clip-path="url(#clip0_1170_2)">
<path d="M96.8766 3.58187C96.8766 3.07026 96.6035 2.8315 96.1261 2.8315H94.7273V0H98.0023C99.5372 0 100.186 0.648133 100.186 2.18336V20.5023C100.186 21.0139 100.458 21.2526 100.936 21.2526H102.335V24.0842H99.0597C97.5247 24.0842 96.8766 23.436 96.8766 21.9007V3.58187Z" fill="#EF2E33"/>
<path d="M113.387 21.662C116.117 21.662 118.368 19.4107 118.368 15.4876C118.368 11.7349 116.355 9.313 113.455 9.313C110.897 9.313 108.509 11.1211 108.509 15.5217C108.509 18.5918 110.112 21.662 113.387 21.662ZM105.268 3.58184C105.268 3.07023 104.995 2.83147 104.518 2.83147H103.119V-3.05176e-05H106.394C107.929 -3.05176e-05 108.577 0.648102 108.577 2.18334V7.81204C108.577 8.63079 108.509 9.24484 108.509 9.24484H108.577C108.577 9.24484 110.078 6.41334 114.137 6.41334C118.778 6.41334 121.711 10.0977 121.711 15.4534C121.711 20.9458 118.402 24.4935 113.864 24.4935C110.01 24.4935 108.441 21.5939 108.441 21.5939H108.372C108.372 21.5939 108.441 22.1397 108.441 22.8901V24.0842H105.268V3.58184Z" fill="#EF2E33"/>
<path d="M129.966 21.8326C132.763 21.8326 134.572 18.8989 134.572 16.3405V15.7605H133.718C131.228 15.7605 126.726 15.897 126.726 19.0694C126.726 20.4682 127.783 21.8326 129.966 21.8326ZM133.786 13.3383H134.537V13.1678C134.537 10.1318 133.411 9.04017 130.717 9.04017C129.898 9.04017 127.885 9.24485 127.885 10.3705V11.3599H124.781V9.65422C124.781 6.82272 129.079 6.41336 130.75 6.41336C136.346 6.41336 137.846 9.3471 137.846 13.1678V20.5023C137.846 21.0139 138.12 21.2526 138.597 21.2526H139.995V24.0842H136.891C135.356 24.0842 134.742 23.3336 134.742 22.1055C134.742 21.5255 134.81 21.0821 134.81 21.0821H134.742C134.742 21.0821 133.378 24.4935 129.25 24.4935C126.282 24.4935 123.382 22.6855 123.382 19.2399C123.382 13.6796 130.888 13.3383 133.786 13.3383Z" fill="#EF2E33"/>
<path d="M143.031 9.48365H140.78V6.82276H143.099V2.08115H146.34V6.82276H150.468V9.48365H146.34V17.398C146.34 20.8435 148.728 21.2869 149.991 21.2869C150.468 21.2869 150.775 21.2186 150.775 21.2186V24.1523C150.775 24.1523 150.331 24.2207 149.615 24.2207C147.431 24.2207 143.031 23.5383 143.031 17.7732V9.48365Z" fill="#EF2E33"/>
<path d="M154.22 10.4046C154.22 9.89302 153.947 9.65425 153.47 9.65425H152.07V6.82276H155.209C156.711 6.82276 157.427 7.43682 157.427 8.83552V9.9271C157.427 10.6093 157.359 11.1211 157.359 11.1211H157.427C158.246 8.59656 160.224 6.61807 162.885 6.61807C163.328 6.61807 163.772 6.68623 163.772 6.68623V9.96118C163.772 9.96118 163.328 9.85894 162.783 9.85894C160.667 9.85894 158.723 11.3599 157.938 13.9183C157.631 14.9077 157.53 15.9652 157.53 17.0227V24.0842H154.22V10.4046Z" fill="#EF2E33"/>
<path d="M173.665 21.628C176.939 21.628 179.601 19.0354 179.601 15.4192C179.601 11.8373 176.939 9.27894 173.665 9.27894C170.424 9.27894 167.763 11.8373 167.763 15.4192C167.763 19.0354 170.424 21.628 173.665 21.628ZM173.665 6.41336C178.815 6.41336 182.978 10.1999 182.978 15.4192C182.978 20.6727 178.815 24.4935 173.665 24.4935C168.514 24.4935 164.386 20.6727 164.386 15.4192C164.386 10.1999 168.514 6.41336 173.665 6.41336Z" fill="#EF2E33"/>
<path d="M184.308 22.1739L193.143 11.2574C193.893 10.3365 194.575 9.65424 194.575 9.65424V9.58588C194.575 9.58588 194.031 9.65424 192.905 9.65424H188.198C187.719 9.65424 187.446 9.92709 187.446 10.4046V11.5645H184.41V9.00611C184.41 7.47089 185.057 6.82275 186.593 6.82275H198.943V8.73307L190.072 19.6836C189.357 20.5364 188.64 21.2526 188.64 21.2526V21.321C188.64 21.321 189.187 21.2526 190.311 21.2526H195.838C196.316 21.2526 196.589 20.9799 196.589 20.5023V19.3423H199.592V21.9008C199.592 23.4361 198.943 24.0842 197.408 24.0842H184.308V22.1739Z" fill="#EF2E33"/>
<path d="M100.219 54.8786C103.494 54.8786 106.155 52.286 106.155 48.6699C106.155 45.0881 103.494 42.5296 100.219 42.5296C96.9785 42.5296 94.3175 45.0881 94.3175 48.6699C94.3175 52.286 96.9785 54.8786 100.219 54.8786ZM100.219 39.664C105.37 39.664 109.532 43.4507 109.532 48.6699C109.532 53.9236 105.37 57.7442 100.219 57.7442C95.0682 57.7442 90.9402 53.9236 90.9402 48.6699C90.9402 43.4507 95.0682 39.664 100.219 39.664Z" fill="white"/>
<path d="M112.602 36.8326C112.602 36.321 112.33 36.0822 111.852 36.0822H110.453V33.2507H113.728C115.263 33.2507 115.911 33.8989 115.911 35.4339V53.753C115.911 54.2647 116.185 54.5034 116.662 54.5034H118.06V57.3349H114.786C113.251 57.3349 112.602 56.6866 112.602 55.1515V36.8326Z" fill="white"/>
<path d="M121.062 43.6553C121.062 43.1437 120.789 42.9049 120.311 42.9049H118.913V40.0734H122.154C123.723 40.0734 124.371 40.7215 124.371 42.1884V50.3756C124.371 52.7636 124.849 54.6739 127.578 54.6739C131.126 54.6739 133.207 51.5696 133.207 48.1583V40.0734H136.515V53.753C136.515 54.2646 136.788 54.5034 137.266 54.5034H138.665V57.3349H135.492C134.025 57.3349 133.308 56.6525 133.308 55.4245V54.7761C133.308 54.2305 133.343 53.7869 133.343 53.7869H133.275C132.559 55.4924 130.341 57.7442 126.93 57.7442C123.04 57.7442 121.062 55.6972 121.062 51.126V43.6553Z" fill="white"/>
<path d="M141.769 42.7343H139.517V40.0734H141.837V35.3316H145.078V40.0734H149.205V42.7343H145.078V50.6486C145.078 54.094 147.466 54.5374 148.728 54.5374C149.205 54.5374 149.513 54.4693 149.513 54.4693V57.4031C149.513 57.4031 149.069 57.4711 148.353 57.4711C146.169 57.4711 141.769 56.7891 141.769 51.0237V42.7343Z" fill="white"/>
<path d="M153.197 33.2507H156.165V36.6962H153.197V33.2507ZM153.128 43.6553C153.128 43.1437 152.855 42.905 152.378 42.905H150.979V40.0734H154.22C155.755 40.0734 156.403 40.7216 156.403 42.2566V53.753C156.403 54.2647 156.676 54.5034 157.153 54.5034H158.552V57.3349H155.311C153.776 57.3349 153.128 56.6866 153.128 55.1515V43.6553Z" fill="white"/>
<path d="M169.263 54.8786C172.539 54.8786 175.199 52.286 175.199 48.6699C175.199 45.0881 172.539 42.5296 169.263 42.5296C166.023 42.5296 163.362 45.0881 163.362 48.6699C163.362 52.286 166.023 54.8786 169.263 54.8786ZM169.263 39.664C174.414 39.664 178.576 43.4507 178.576 48.6699C178.576 53.9236 174.414 57.7442 169.263 57.7442C164.112 57.7442 159.984 53.9236 159.984 48.6699C159.984 43.4507 164.112 39.664 169.263 39.664Z" fill="white"/>
<path d="M182.022 43.6553C182.022 43.1437 181.748 42.905 181.272 42.905H179.873V40.0734H183.044C184.511 40.0734 185.228 40.7216 185.228 41.9837V42.6319C185.228 43.1775 185.16 43.6212 185.16 43.6212H185.228C185.91 42.1202 187.956 39.664 191.71 39.664C195.804 39.664 197.645 41.8813 197.645 46.2821V53.753C197.645 54.2647 197.918 54.5034 198.396 54.5034H199.795V57.3349H196.52C194.985 57.3349 194.336 56.6866 194.336 55.1515V47.0325C194.336 44.6105 193.859 42.7002 191.096 42.7002C188.434 42.7002 186.32 44.4399 185.637 46.9302C185.398 47.6125 185.33 48.3971 185.33 49.2499V57.3349H182.022V43.6553Z" fill="white"/>
<path d="M202.42 52.4906C202.42 52.4906 204.466 55.0493 207.64 55.0493C209.244 55.0493 210.643 54.3329 210.643 52.8318C210.643 49.7275 201.227 50.0686 201.227 44.5081C201.227 41.1991 204.126 39.664 207.64 39.664C209.722 39.664 213.302 40.3804 213.302 43.0072V44.6446H210.334V43.7918C210.334 42.7684 208.8 42.325 207.742 42.325C205.798 42.325 204.535 43.0072 204.535 44.3716C204.535 47.6466 213.95 46.9302 213.95 52.6953C213.95 55.7655 211.223 57.7442 207.607 57.7442C203.002 57.7442 200.715 54.7082 200.715 54.7082L202.42 52.4906Z" fill="white"/>
<path d="M93.8408 21.1504C93.2608 21.1504 92.9197 21.0139 92.715 20.3999L85.1759 0H81.5941L74.0549 20.3999C73.8501 21.0139 73.5433 21.1504 72.9292 21.1504H72.4517V24.0842H74.3279C76.0335 24.0842 76.5795 23.6748 77.1594 22.1055L78.9673 17.159H82.6079V14.2936H79.786L82.4128 6.95926C82.8562 5.69688 83.3338 3.58187 83.3338 3.58187H83.4019C83.4019 3.58187 83.9138 5.69688 84.3573 6.95926L86.984 14.2936H84.2116V17.159H87.8368L89.6448 22.1055C90.1906 23.6748 90.7363 24.0842 92.4421 24.0842H94.3524V21.1504H93.8408Z" fill="#EF2E33"/>
<path d="M80.5678 46.5609V42.7909C78.6859 41.895 77.2277 40.9158 77.2277 39.1864C77.2277 37.3784 78.865 35.9456 81.4576 35.9456C83.3679 35.9456 85.176 36.8668 85.176 38.1288V39.2547H88.3144V37.2762C88.3144 34.0013 84.0163 32.8413 81.4576 32.8413C76.9205 32.8413 73.748 35.6729 73.748 39.2888C73.748 43.4749 77.3669 45.0818 80.5678 46.5609Z" fill="white"/>
<path d="M82.1716 43.5151V47.3303C83.9904 48.2646 85.3806 49.3129 85.3806 51.058C85.3806 53.2753 83.5044 54.6399 81.2529 54.6399C77.671 54.6399 75.2149 51.7402 75.2149 51.7402L73.2023 54.1621C73.2023 54.1621 76.0679 57.7442 81.1847 57.7442C85.9606 57.7442 88.826 54.5715 88.826 50.8874C88.826 46.5396 85.326 44.9099 82.1716 43.5151Z" fill="white"/>
<path d="M34.1201 48.4427C33.8541 48.4427 33.582 48.386 33.4268 48.2741C33.4268 48.2741 32.7585 45.4178 32.4013 44.1652C32.0078 42.7836 31.8442 41.1374 30.8571 40.7683C29.4407 40.239 28.4053 40.1197 26.9664 40.0459C26.8384 40.0392 26.7105 40.0365 26.5824 40.0365C25.9344 40.0365 25.2872 40.1131 24.6397 40.1898C23.9921 40.2667 23.3445 40.3434 22.6955 40.3434C22.6206 40.3434 22.5453 40.3425 22.4701 40.3402C20.7875 40.2913 19.1299 39.9273 17.4618 39.683L10.201 40.0435C9.04762 40.4705 7.92595 41.0222 6.73374 41.314C5.14848 41.7018 4.56419 42.2656 2.22956 42.401C2.20933 42.4021 2.19009 42.4026 2.17192 42.4026C1.9831 42.4026 1.90589 42.3399 1.91233 42.2324C1.92643 41.9976 2.34011 41.5488 2.8618 41.0736C4.68677 40.8816 5.3022 40.3876 6.73374 40.0373C8.50593 39.6037 10.1222 38.594 11.9185 38.2776C12.5166 38.1721 13.1242 38.1382 13.7336 38.1382C14.3275 38.1382 14.9232 38.1705 15.514 38.2005C17.8472 38.3197 20.1349 38.9959 22.4701 39.0637C22.5455 39.066 22.6207 39.0669 22.696 39.0669C23.3448 39.0669 23.9925 38.9903 24.6401 38.9133C25.2875 38.8367 25.9349 38.7597 26.583 38.7597C26.7109 38.7597 26.8387 38.7627 26.9666 38.7694C28.4053 38.8432 29.4407 38.9625 30.8571 39.4921C31.8442 39.861 32.0078 41.5071 32.4016 42.8887C32.7585 44.1415 33.4268 46.9976 33.4268 46.9976C33.582 47.1098 33.8541 47.1663 34.12 47.1663C34.482 47.1663 34.8325 47.0614 34.8615 46.8491C35.1856 44.4687 35.2022 44.8037 35.4772 42.4356C35.7 41.8821 35.6957 40.2241 36.3167 39.663C37.3896 38.6937 38.9871 38.739 40.4269 38.6941C40.502 38.6917 40.5769 38.6906 40.6519 38.6906C41.3534 38.6906 42.0517 38.7879 42.7503 38.8849C43.449 38.9822 44.1481 39.0794 44.8502 39.0794C44.8723 39.0794 44.8944 39.0793 44.9164 39.0792C47.2525 39.0585 49.5534 38.4288 51.8882 38.3569C52.3559 38.3424 52.8267 38.3267 53.2967 38.3267C54.0312 38.3267 54.7641 38.365 55.4814 38.5064C57.2711 38.8592 58.8671 39.9015 60.6303 40.3706C62.0623 40.7518 62.6663 41.2614 64.5103 41.4885C65.2478 42.1886 65.7607 42.8279 65.1858 42.8279C65.1629 42.8279 65.1382 42.8269 65.1119 42.8248C62.7805 42.6426 62.2076 42.0669 60.6302 41.647C59.1977 41.2658 57.8755 40.5062 56.4701 40.0456L56.4589 40.0454L56.4566 40.0415C56.1399 39.9383 55.8191 39.85 55.4917 39.7848C55.4883 39.7842 55.4849 39.7834 55.4814 39.7829C54.764 39.6414 54.0305 39.6032 53.2958 39.6032C52.826 39.6032 52.3556 39.6187 51.8882 39.6332C51.0312 39.6595 50.1784 39.7614 49.3268 39.8804C47.8592 40.0858 46.395 40.3425 44.9163 40.3557C44.8942 40.3558 44.8723 40.3559 44.8502 40.3559C44.148 40.3559 43.4488 40.2587 42.7501 40.1614C42.0511 40.0642 41.3527 39.9669 40.6511 39.9669C40.5766 39.9669 40.5016 39.9682 40.4269 39.9704C38.9871 40.0153 37.3895 39.9702 36.3167 40.9394C35.6957 41.5006 35.7 43.1586 35.4772 43.7121C35.2023 46.08 35.1856 45.7452 34.8615 48.1256C34.8325 48.3379 34.482 48.4427 34.1201 48.4427Z" fill="white"/>
<mask id="mask0_1170_2" style="mask-type:luminance" maskUnits="userSpaceOnUse" x="33" y="0" width="19" height="33">
<path d="M45.1993 32.7316C47.2252 32.3781 49.2423 31.4651 51.2684 31.6376C51.3881 31.6479 51.5086 31.6627 51.6294 31.6804L33.3388 0L33.3508 12.2091L45.1993 32.7316Z" fill="white"/>
</mask>
<g mask="url(#mask0_1170_2)">
<path d="M45.1993 32.7316C47.2252 32.3781 49.2423 31.4651 51.2684 31.6376C51.3881 31.6479 51.5086 31.6627 51.6294 31.6804L33.3388 0L33.3508 12.2091L45.1993 32.7316Z" fill="white"/>
</g>
<mask id="mask1_1170_2" style="mask-type:luminance" maskUnits="userSpaceOnUse" x="34" y="51" width="33" height="7">
<path d="M34.6897 57.7442H66.591L56.0488 51.6501H34.6897V57.7442Z" fill="white"/>
</mask>
<g mask="url(#mask1_1170_2)">
<path d="M34.6897 57.7442H66.591L56.0488 51.6501H34.6897V57.7442Z" fill="white"/>
</g>
<mask id="mask2_1170_2" style="mask-type:luminance" maskUnits="userSpaceOnUse" x="0" y="51" width="34" height="7">
<path d="M33.4912 51.6501H10.5644L0.0222168 57.7442H33.4912V51.6501Z" fill="white"/>
</mask>
<g mask="url(#mask2_1170_2)">
<path d="M33.4912 51.6501H10.5644L0.0222168 57.7442H33.4912V51.6501Z" fill="white"/>
</g>
<mask id="mask3_1170_2" style="mask-type:luminance" maskUnits="userSpaceOnUse" x="15" y="0" width="19" height="33">
<path d="M16.242 31.4949C18.034 31.3788 19.8022 32.1087 21.581 32.5529L33.3387 12.1882L33.3508 12.2091L33.3387 0L15.0448 31.6857C15.4492 31.5876 15.8494 31.5204 16.242 31.4949Z" fill="white"/>
</mask>
<g mask="url(#mask3_1170_2)">
<path d="M16.242 31.4949C18.034 31.3788 19.8022 32.1087 21.581 32.5529L33.3387 12.1882L33.3508 12.2091L33.3387 0L15.0448 31.6857C15.4492 31.5876 15.8494 31.5204 16.242 31.4949Z" fill="white"/>
</g>
<path d="M1.91234 40.956C1.90513 41.0739 1.99876 41.1378 2.22958 41.1243C4.56421 40.9894 5.1485 40.4253 6.73375 40.0374C8.50594 39.6037 10.1222 38.594 11.9185 38.2776C13.0995 38.0695 14.3169 38.1396 15.514 38.2006C17.8472 38.3197 20.1349 38.9959 22.4701 39.0638C23.1946 39.0847 23.9174 38.9992 24.6401 38.9133C25.4153 38.8215 26.1902 38.7296 26.9666 38.7695C28.4053 38.8434 29.4408 38.9627 30.8571 39.4921C31.8442 39.8612 32.0078 41.5071 32.4016 42.8887C32.7585 44.1415 33.4268 46.9977 33.4268 46.9977C33.7935 47.2621 34.8113 47.2174 34.8615 46.8491C35.1856 44.4688 35.2022 44.8037 35.4772 42.4357C35.7 41.8821 35.6957 40.2241 36.3167 39.663C37.3896 38.6937 38.9871 38.739 40.4269 38.6942C41.2041 38.6698 41.977 38.7774 42.7503 38.8849C43.4711 38.9853 44.1919 39.0855 44.9164 39.0792C47.2525 39.0585 49.5534 38.4288 51.8882 38.3569C53.0865 38.3197 54.305 38.2746 55.4814 38.5064C57.2712 38.8592 58.8671 39.9015 60.6304 40.3706C62.2076 40.7904 62.7805 41.3661 65.1121 41.5484C66.3412 41.6445 63.7099 39.4606 62.7252 38.6928C61.3844 37.6467 60.1261 36.7926 58.4279 35.9311C56.2904 34.8468 53.6527 33.117 51.2684 32.9138C49.9312 32.8002 48.5981 33.159 47.2637 33.518C46.0132 33.8544 44.7618 34.1907 43.5053 34.138C40.9461 34.0306 38.1047 34.0597 36.2218 32.3089C35.4549 31.596 35.3412 30.886 35.1202 30.0891C34.7697 28.825 34.2947 28.0758 34.0993 27.8042L33.6764 24.8495C33.6764 24.8495 33.5074 24.9043 33.3816 26.2622C33.3391 26.7195 33.2522 27.9599 33.2522 27.9599C33.2522 27.9599 32.7373 28.9654 32.507 29.4812C32.0688 30.4626 32.0786 31.7733 31.2979 32.4705C29.3804 34.1832 26.5403 34.0963 23.9793 34.1522C22.722 34.1795 21.4775 33.8179 20.234 33.4563C18.9071 33.0704 17.5811 32.6845 16.242 32.7713C13.8541 32.9261 11.1828 34.6025 9.02415 35.6433C7.30907 36.4702 6.03403 37.2991 4.6727 38.3178C3.86061 38.9254 1.94289 40.4455 1.91234 40.956Z" fill="#EF2E33"/>
<mask id="mask4_1170_2" style="mask-type:luminance" maskUnits="userSpaceOnUse" x="49" y="39" width="18" height="19">
<path d="M66.6772 57.7442H66.591L56.0488 51.6501H56.1219L49.8682 40.8183L49.868 40.8179L49.3267 39.8804C50.1783 39.7615 51.031 39.6595 51.8881 39.6332C52.3555 39.6187 52.8258 39.6031 53.2956 39.6031C54.0304 39.6031 54.7639 39.6414 55.4813 39.7828C55.4847 39.7834 55.4882 39.7842 55.4915 39.7848C55.819 39.8499 56.1398 39.9383 56.4565 40.0415L56.4588 40.0454L56.7805 40.6027L56.7807 40.6028L66.6772 57.7442Z" fill="white"/>
</mask>
<g mask="url(#mask4_1170_2)">
<path d="M66.6772 57.7442H66.591L56.0488 51.6501H56.1219L49.8682 40.8183L49.868 40.8179L49.3267 39.8804C50.1783 39.7615 51.031 39.6595 51.8881 39.6332C52.3555 39.6187 52.8258 39.6031 53.2956 39.6031C54.0304 39.6031 54.7639 39.6414 55.4813 39.7828C55.4847 39.7834 55.4882 39.7842 55.4915 39.7848C55.819 39.8499 56.1398 39.9383 56.4565 40.0415L56.4588 40.0454L56.7805 40.6027L56.7807 40.6028L66.6772 57.7442Z" fill="white"/>
</g>
<path d="M17.4617 39.683C16.8146 39.5879 16.1663 39.5104 15.514 39.477C14.3167 39.416 13.0994 39.346 11.9184 39.554C11.3388 39.6562 10.778 39.8309 10.2246 40.0347L9.923 40.5571L16.8272 40.7725L17.4617 39.683Z" fill="white"/>
<mask id="mask5_1170_2" style="mask-type:luminance" maskUnits="userSpaceOnUse" x="0" y="39" width="18" height="19">
<path d="M17.4644 39.6832L17.4617 39.683C16.8147 39.5879 16.1663 39.5104 15.514 39.477C14.3168 39.416 13.0994 39.346 11.9184 39.554C11.3389 39.6562 10.778 39.8309 10.2246 40.0347L9.92302 40.5571L0 57.7442H0.0221205L10.5643 51.6501H10.5554L17.4644 39.6832Z" fill="white"/>
</mask>
<g mask="url(#mask5_1170_2)">
<path d="M17.4644 39.6832L17.4617 39.683C16.8147 39.5879 16.1663 39.5104 15.514 39.477C14.3168 39.416 13.0994 39.346 11.9184 39.554C11.3389 39.6562 10.778 39.8309 10.2246 40.0347L9.92302 40.5571L0 57.7442H0.0221205L10.5643 51.6501H10.5554L17.4644 39.6832Z" fill="white"/>
</g>
<path d="M56.7806 40.6028L56.4701 40.0456L56.4565 40.0416L56.7806 40.6028Z" fill="white"/>
</g>
<defs>
<clipPath id="clip0_1170_2">
<rect width="214" height="57.7442" fill="white"/>
</clipPath>
</defs>
</svg>
