<svg width="40" height="40" viewBox="0 0 40 40" fill="none" xmlns="http://www.w3.org/2000/svg">
<g clip-path="url(#clip0_626_17)">
<path d="M20.0288 8.63623C16.4515 8.63623 13.5516 11.536 13.5516 15.1134C13.5516 18.6907 16.4515 21.5905 20.0288 21.5905C23.6061 21.5905 26.5059 18.6907 26.5059 15.1134C26.5021 11.5378 23.6044 8.6401 20.0288 8.63623ZM20.7485 19.4315H19.3091V12.9543H17.8697V11.515H19.3091V10.7953H20.7485V19.4315Z" fill="white"/>
<path d="M20.0288 5.0376C14.4643 5.0376 9.95325 9.54862 9.95325 15.1132C9.95325 20.6777 14.4643 25.1887 20.0288 25.1887C25.5934 25.1887 30.1044 20.6777 30.1044 15.1132C30.0984 9.55108 25.5909 5.04357 20.0288 5.0376ZM20.0288 23.0297C15.6566 23.0297 12.1123 19.4854 12.1123 15.1132C12.1123 10.7409 15.6566 7.19665 20.0288 7.19665C24.401 7.19665 27.9453 10.7409 27.9453 15.1132C27.9401 19.4833 24.3989 23.0244 20.0288 23.0297Z" fill="white"/>
<path d="M26.506 40.0001V30.4878L26.434 30.5283C26.0899 30.7272 25.6496 30.6091 25.4511 30.2651L24.8031 29.1486L24.2081 28.1187C23.7805 28.2571 23.3465 28.3738 22.9076 28.4687V30.9464C22.9076 31.3439 22.5853 31.6661 22.1879 31.6661H17.8698C17.4724 31.6661 17.1501 31.3439 17.1501 30.9464V28.4687C16.7095 28.3738 16.2737 28.2571 15.8446 28.1187L14.6052 30.2651C14.4067 30.6091 13.9664 30.7272 13.6223 30.5283L13.5503 30.4878V40.0001L19.3078 37.9387V33.8252H20.7471V37.9387L26.506 40.0001Z" fill="white"/>
<path d="M35.1421 16.5527V13.674H32.7887C32.4373 13.674 32.1376 13.4203 32.0792 13.0738C31.9517 12.3168 31.7528 11.5736 31.4854 10.8543C31.3624 10.525 31.4948 10.155 31.7992 9.97928L33.8373 8.80242L32.398 6.31093L30.37 7.48464C30.0657 7.65999 29.6795 7.59041 29.456 7.31983C28.9647 6.7256 28.419 6.17845 27.8258 5.68543C27.5552 5.46193 27.4856 5.07574 27.661 4.77142L28.8312 2.74344L26.3397 1.30407L25.1628 3.34294C24.9871 3.64726 24.6171 3.77974 24.2878 3.65675C23.5685 3.38933 22.8253 3.19043 22.0683 3.06287C21.7218 3.00454 21.4681 2.70479 21.4681 2.35338V0H18.5894V2.35338C18.5894 2.70479 18.3357 3.00454 17.9892 3.06287C17.2323 3.19043 16.489 3.38933 15.7697 3.65675C15.4404 3.77974 15.0704 3.64726 14.8943 3.34294L13.7178 1.30478L11.2263 2.74414L12.4 4.77212C12.5754 5.07644 12.5058 5.46264 12.2352 5.68613C11.641 6.1774 11.0935 6.72314 10.6008 7.31631C10.3773 7.5869 9.99114 7.65648 9.68682 7.48112L7.65885 6.31093L6.21948 8.80242L8.25765 9.97928C8.56196 10.155 8.69445 10.525 8.57145 10.8543C8.30403 11.5736 8.10513 12.3168 7.97757 13.0738C7.91924 13.4199 7.61984 13.6736 7.26878 13.674H4.91541V16.5527H7.26878C7.62019 16.5527 7.91994 16.8064 7.97828 17.1529C8.10584 17.9099 8.30473 18.6531 8.57216 19.3724C8.69515 19.7017 8.56267 20.0717 8.25835 20.2474L6.22018 21.4243L7.65955 23.9158L9.68752 22.7421C9.99184 22.5667 10.378 22.6363 10.6015 22.9069C11.0928 23.5011 11.6385 24.0482 12.2317 24.5413C12.5023 24.7648 12.5719 25.151 12.3965 25.4553L11.2263 27.4833L13.7178 28.9226L14.8943 26.8845C15.0704 26.5801 15.4404 26.4477 15.7697 26.5707C16.489 26.8381 17.2323 27.037 17.9892 27.1645C18.3353 27.2229 18.589 27.5223 18.5894 27.8733V30.2267H21.4681V27.8733C21.4681 27.5219 21.7218 27.2222 22.0683 27.1638C22.8253 27.0363 23.5685 26.8374 24.2878 26.57C24.6171 26.447 24.9871 26.5794 25.1628 26.8838L26.0547 28.4275L26.3425 28.9205L28.834 27.4812L27.6638 25.4532C27.4884 25.1489 27.558 24.7627 27.8286 24.5392C28.4207 24.0479 28.9658 23.5029 29.4567 22.9104C29.6802 22.6398 30.0664 22.5702 30.3707 22.7456L32.3987 23.9158L33.838 21.4243L31.7999 20.2474C31.4955 20.0717 31.3631 19.7017 31.4861 19.3724C31.7535 18.6531 31.9524 17.9099 32.0799 17.1529C32.1383 16.8068 32.4377 16.5531 32.7887 16.5527H35.1421ZM20.0288 26.6283C13.6693 26.6283 8.51382 21.4728 8.51382 15.1133C8.51382 8.75392 13.6693 3.59842 20.0288 3.59842C26.3882 3.59842 31.5437 8.75392 31.5437 15.1133C31.536 21.4696 26.385 26.6209 20.0288 26.6283Z" fill="white"/>
</g>
<defs>
<clipPath id="clip0_626_17">
<rect width="40" height="40" fill="white"/>
</clipPath>
</defs>
</svg>
