<svg width="285" height="80" viewBox="0 0 285 80" fill="none" xmlns="http://www.w3.org/2000/svg">
<g clip-path="url(#clip0_997_1210)">
<path d="M38.1326 1.14228L66.9864 17.8543C68.9105 18.9688 70.097 21.0363 70.097 23.2747V56.6373C70.097 58.8757 68.9105 60.9432 66.9864 62.0576L38.1326 78.7697C36.2227 79.8759 33.8743 79.8759 31.9644 78.7697L3.11056 62.0576C1.18647 60.9432 0 58.8757 0 56.6373V23.2747C0 21.0363 1.18647 18.9688 3.11056 17.8543L31.9644 1.14228C33.8743 0.036069 36.2227 0.036069 38.1326 1.14228Z" fill="#156DE0"/>
<path d="M22.1459 51.5049C22.1459 54.3433 22.9292 55.0363 25.7378 55.6678C27.0436 55.983 30.0483 56.4877 33.9666 56.4877C44.0903 56.4877 48.0087 53.3975 48.0087 46.9643C48.0087 41.6654 45.3305 39.3317 40.4984 37.5026L33.7058 34.917C31.7462 34.1596 31.0286 33.7809 31.0286 32.7717C31.0286 31.6365 31.9422 31.0694 35.8615 31.0694C39.4534 31.0694 41.4778 31.5106 42.8493 31.8259C45.7226 32.5198 46.5068 31.8259 46.5068 28.9875V28.357C46.5068 25.5186 45.7882 24.8247 42.9149 24.1941C42.1316 24.0048 39.9093 23.4377 35.991 23.4377C26.326 23.4377 22.6684 26.5904 22.6684 32.7092C22.6684 37.8812 25.281 39.9631 29.461 41.6654L35.5351 44.1251C38.8652 45.4496 39.6495 45.8917 39.6495 47.0268C39.6495 48.4772 38.4084 48.8559 34.6205 48.8559C29.9826 48.8559 27.371 48.2879 25.7378 47.8467C22.8645 47.0893 22.1459 47.9726 22.1459 50.811V51.5049Z" fill="white"/>
<path d="M87.1876 48.2333C87.1876 49.8802 87.6252 50.2824 89.194 50.6488C89.9234 50.8317 91.6018 51.1245 93.7905 51.1245C99.4455 51.1245 101.634 49.3314 101.634 45.5986C101.634 42.524 100.138 41.1698 97.4391 40.1085L93.6448 38.6082C92.5502 38.1688 92.1493 37.949 92.1493 37.3634C92.1493 36.7048 92.6597 36.3757 94.849 36.3757C96.8554 36.3757 97.9861 36.6317 98.7522 36.8146C100.357 37.2173 100.795 36.8146 100.795 35.1677V34.8018C100.795 33.1549 100.394 32.7522 98.7889 32.3864C98.3514 32.2765 97.11 31.9474 94.9213 31.9474C89.5226 31.9474 87.4795 33.7768 87.4795 37.3272C87.4795 40.3282 88.9388 41.5362 91.2737 42.524L94.6666 43.9512C96.5268 44.7197 96.9649 44.9762 96.9649 45.6349C96.9649 46.4765 96.2716 46.6962 94.1557 46.6962C91.5651 46.6962 90.1063 46.3666 89.194 46.1106C87.589 45.6712 87.1876 46.1837 87.1876 47.8306V48.2333ZM103.349 35.0578C103.349 36.5218 103.713 36.8877 105.173 36.8877H106.632V44.0978C106.632 49.4413 109.623 51.0877 113.673 51.0877C114.95 51.0877 115.752 50.9778 116.226 50.8685C117.832 50.5389 118.233 49.917 118.233 48.2701V47.8674C118.233 46.2205 117.832 46.0744 116.226 46.3666C115.862 46.4397 114.95 46.5864 113.673 46.5864C112.287 46.5864 111.374 45.964 111.374 44.1341V36.8877H115.533C117.175 36.8877 117.576 36.485 117.576 34.8381V34.436C117.576 32.789 117.175 32.3864 115.533 32.3864H111.374V29.532C111.374 27.9944 111.01 27.6285 109.477 27.6285H109.259C107.726 27.6285 107.289 27.9944 107.069 29.4952L106.632 32.3864L105.136 32.7154C103.713 33.0082 103.349 33.4477 103.349 34.9112V35.0578ZM133.123 42.9997C133.123 45.3421 132.503 46.6232 129.22 46.6232C125.937 46.6232 125.243 45.3421 125.243 42.9997V40.0717C125.243 37.7293 125.937 36.4488 129.22 36.4488C132.503 36.4488 133.123 37.7293 133.123 40.0717V42.9997ZM129.22 51.1245C134.911 51.1245 137.902 48.2333 137.902 42.9997V40.0717C137.902 34.6557 135.203 31.9474 129.22 31.9474C123.528 31.9474 120.464 34.8381 120.464 40.0717V42.9997C120.464 48.4162 123.237 51.1245 129.22 51.1245ZM145.892 39.3394C145.892 37.4733 146.439 36.4488 149.431 36.4488C152.422 36.4488 152.896 37.4733 152.896 39.3394V48.636C152.896 50.2824 153.298 50.6856 154.939 50.6856H155.633C157.274 50.6856 157.676 50.2824 157.676 48.636V39.3394C157.676 34.436 155.195 31.9474 149.431 31.9474C143.922 31.9474 141.113 34.5458 141.113 39.3394V48.636C141.113 50.2824 141.514 50.6856 143.156 50.6856H143.849C145.491 50.6856 145.892 50.2824 145.892 48.636V39.3394ZM177.739 39.8525C177.739 34.6557 175.077 31.9474 169.75 31.9474C163.402 31.9474 161.25 35.4605 161.25 40.1816V43.1096C161.25 48.7821 164.315 51.1245 170.771 51.1245C172.814 51.1245 174.529 50.8317 175.222 50.6488C176.828 50.2466 177.156 49.917 177.156 48.2701V47.8674C177.156 46.2205 176.828 45.7816 175.222 46.1106C174.529 46.2573 172.705 46.6232 170.808 46.6232C167.415 46.6232 166.029 45.7442 166.029 43.8418V43.2925H175.296C176.973 43.2925 177.448 42.9629 177.667 41.2797C177.739 40.6205 177.739 40.1448 177.739 39.8525ZM166.029 38.8642C166.029 37.0344 167.197 36.0824 169.604 36.0824C172.012 36.0824 173.216 37.0344 173.216 38.8642V39.4136H166.029V38.8642ZM181.023 43.1096C181.023 48.8557 184.89 51.1245 189.705 51.1245C195.178 51.1245 198.425 48.8557 198.425 43.1096V40.1816C198.425 34.948 195.835 31.9474 190.764 31.9474C188.246 31.9474 186.714 32.7522 185.766 34.0333V27.116C185.766 25.4696 185.364 25.0669 183.723 25.0669H183.066C181.424 25.0669 181.023 25.4696 181.023 27.116V43.1096ZM193.646 42.9997C193.646 45.3421 193.098 46.6232 189.742 46.6232C186.459 46.6232 185.766 45.3421 185.766 42.9997V40.0717C185.766 37.7293 186.459 36.4488 189.742 36.4488C193.026 36.4488 193.646 37.7293 193.646 40.0717V42.9997ZM206.414 38.9741C206.414 37.3272 206.851 36.4488 209.223 36.4488H209.624C211.12 36.5586 211.484 36.3389 211.484 34.692V34.2893C211.484 32.6424 211.083 31.9474 209.624 31.9474H209.223C204.225 31.9474 201.635 34.2893 201.635 38.6082V48.636C201.635 50.2824 202.036 50.6856 203.678 50.6856H204.371C206.012 50.6856 206.414 50.2824 206.414 48.636V38.9741ZM228.382 38.2418C228.382 33.4477 224.917 31.9474 219.554 31.9474C218.021 31.9474 217.146 32.0568 216.599 32.1298C215.03 32.3496 214.628 32.789 214.628 34.3624V34.509C214.628 36.156 215.103 36.4488 216.672 36.229C217.218 36.156 218.386 36.0093 219.845 36.0093C222.108 36.0093 223.64 36.3389 223.64 38.2418V39.6328H219.955C215.614 39.6328 212.251 41.06 212.251 45.3421C212.251 49.1117 214.884 51.1245 220.466 51.1245C226.084 51.1245 228.382 49.1117 228.382 45.2322V38.2418ZM223.64 44.9762C223.64 46.989 222.034 47.1352 220.393 47.1352C218.751 47.1352 217.292 46.989 217.292 45.2322C217.292 43.8781 218.131 43.2194 219.882 43.2194H223.64V44.9762ZM236.669 39.3394C236.669 37.4733 237.217 36.4488 240.208 36.4488C243.2 36.4488 243.674 37.4733 243.674 39.3394V48.636C243.674 50.2824 244.075 50.6856 245.717 50.6856H246.41C248.052 50.6856 248.453 50.2824 248.453 48.636V39.3394C248.453 34.436 245.972 31.9474 240.208 31.9474C234.7 31.9474 231.89 34.5458 231.89 39.3394V48.636C231.89 50.2824 232.292 50.6856 233.934 50.6856H234.627C236.268 50.6856 236.669 50.2824 236.669 48.636V39.3394ZM251.845 43.2925C251.845 48.3064 254.545 51.1245 260.746 51.1245C261.768 51.1245 262.717 50.9778 263.191 50.8685C264.796 50.5389 265.198 50.1 265.198 48.453V48.0866C265.198 46.4397 264.796 46.1106 263.191 46.4034C262.607 46.5133 261.805 46.6232 260.965 46.6232C257.938 46.6232 256.625 45.7816 256.625 43.1464V39.8525C256.625 37.1437 257.792 36.4488 260.637 36.4488C261.696 36.4488 262.352 36.5586 262.936 36.7048C264.468 37.0712 264.869 36.7048 264.869 35.0578V34.6557C264.869 33.0082 264.468 32.5325 262.936 32.2034C262.462 32.0936 261.696 31.9474 260.565 31.9474C254.764 31.9474 251.845 35.0946 251.845 39.7794V43.2925ZM268.159 48.636C268.159 50.2824 268.56 50.6856 270.202 50.6856H270.895C272.536 50.6856 272.938 50.2824 272.938 48.636V40.877C272.938 37.2904 274.762 36.4488 276.878 36.4488C278.775 36.4488 279.942 37.0344 279.942 39.084V48.636C279.942 50.2824 280.344 50.6856 281.986 50.6856H282.678C284.32 50.6856 284.721 50.2824 284.721 48.636V38.2418C284.721 33.301 281.438 31.9474 278.52 31.9474C276.112 31.9474 274.105 32.7522 272.938 34.0333V27.116C272.938 25.4696 272.536 25.0669 270.895 25.0669H270.202C268.56 25.0669 268.159 25.4696 268.159 27.116V48.636Z" fill="white"/>
</g>
<defs>
<clipPath id="clip0_997_1210">
<rect width="284.8" height="80" fill="white"/>
</clipPath>
</defs>
</svg>
