<svg width="40" height="40" viewBox="0 0 40 40" fill="none" xmlns="http://www.w3.org/2000/svg">
<g clip-path="url(#clip0_626_111)">
<path d="M20 11.25C21.1125 11.25 22.2001 10.9201 23.1251 10.302C24.0501 9.68394 24.7711 8.80543 25.1968 7.7776C25.6226 6.74976 25.734 5.61876 25.5169 4.52762C25.2999 3.43648 24.7641 2.4342 23.9775 1.64753C23.1908 0.860857 22.1885 0.325127 21.0974 0.108085C20.0062 -0.108957 18.8752 0.00243723 17.8474 0.42818C16.8196 0.853923 15.9411 1.57489 15.323 2.49992C14.7049 3.42495 14.375 4.51248 14.375 5.625C14.3767 7.11634 14.9698 8.54612 16.0244 9.60065C17.0789 10.6552 18.5087 11.2483 20 11.25ZM17.3706 5.18313C17.4878 5.06596 17.6468 5.00014 17.8125 5.00014C17.9782 5.00014 18.1372 5.06596 18.2544 5.18313L19.2706 6.19938L21.7456 3.725C21.8033 3.66531 21.8722 3.61769 21.9485 3.58494C22.0247 3.55218 22.1068 3.53494 22.1897 3.53422C22.2727 3.5335 22.355 3.54931 22.4318 3.58074C22.5087 3.61216 22.5784 3.65857 22.6371 3.71726C22.6958 3.77594 22.7422 3.84572 22.7736 3.92253C22.8051 3.99934 22.8209 4.08164 22.8202 4.16463C22.8194 4.24762 22.8022 4.32963 22.7694 4.40588C22.7367 4.48213 22.6891 4.5511 22.6294 4.60875L19.7125 7.525C19.5953 7.64217 19.4364 7.70799 19.2706 7.70799C19.1049 7.70799 18.946 7.64217 18.8287 7.525L17.3706 6.06688C17.2535 5.94967 17.1876 5.79073 17.1876 5.625C17.1876 5.45927 17.2535 5.30033 17.3706 5.18313Z" fill="white"/>
<path d="M14.5 30.0236C14.2337 29.7065 13.8525 29.508 13.44 29.4718C13.0275 29.4356 12.6175 29.5646 12.3 29.8305L8.94626 32.643C8.62865 32.9088 8.42958 33.2899 8.39278 33.7024C8.35598 34.1149 8.48447 34.5252 8.75001 34.843C9.01627 35.1602 9.39753 35.3586 9.81004 35.3949C10.2226 35.4311 10.6326 35.302 10.95 35.0361L14.3031 32.2236C14.6208 31.9579 14.82 31.5769 14.8569 31.1644C14.8939 30.7519 14.7655 30.3416 14.5 30.0236Z" fill="white"/>
<path d="M22.0362 35.1189C21.7699 34.8017 21.3887 34.6032 20.9762 34.567C20.5637 34.5308 20.1536 34.6598 19.8362 34.9257L17.4406 36.9376C17.1233 37.2039 16.9246 37.5853 16.8884 37.9979C16.8522 38.4106 16.9814 38.8208 17.2475 39.1382C17.5137 39.4556 17.8951 39.6542 18.3078 39.6904C18.7204 39.7266 19.1306 39.5975 19.4481 39.3314L21.8431 37.3226C22.0007 37.1907 22.1307 37.0291 22.2257 36.8469C22.3207 36.6646 22.3788 36.4655 22.3968 36.2608C22.4147 36.0561 22.3921 35.8499 22.3302 35.6539C22.2684 35.458 22.1684 35.2761 22.0362 35.1189Z" fill="white"/>
<path d="M11.9719 28.4718C12.2892 28.2055 12.4878 27.8241 12.524 27.4114C12.5602 26.9988 12.4311 26.5886 12.165 26.2711C11.8986 25.9539 11.5172 25.7554 11.1045 25.7193C10.6919 25.6832 10.2818 25.8125 9.96438 26.0786L7.08938 28.4886C6.77214 28.755 6.57366 29.1364 6.53756 29.5491C6.50147 29.9618 6.63071 30.3719 6.89688 30.6893C7.16314 31.0064 7.54441 31.2049 7.95691 31.2411C8.36942 31.2773 8.77944 31.1483 9.09688 30.8824L11.9719 28.4718Z" fill="white"/>
<path d="M17.7881 32.9723C17.5218 32.6551 17.1403 32.4566 16.7277 32.4205C16.315 32.3844 15.9049 32.5136 15.5875 32.7798L13.1919 34.7879C12.8856 35.0575 12.6969 35.4361 12.6661 35.8429C12.6353 36.2497 12.7648 36.6524 13.0269 36.965C13.2891 37.2775 13.6631 37.4752 14.069 37.5157C14.475 37.5562 14.8806 37.4363 15.1994 37.1817L17.595 35.1736C17.9125 34.9073 18.1112 34.5258 18.1475 34.1129C18.1837 33.7001 18.0544 33.2898 17.7881 32.9723Z" fill="white"/>
<path d="M22.6469 38.2777L20.8025 39.8234C21.0791 39.97 21.3937 40.0296 21.7048 39.9942C22.016 39.9588 22.3091 39.8301 22.5458 39.6251C22.7824 39.42 22.9515 39.1481 23.0308 38.8452C23.11 38.5423 23.0958 38.2224 22.99 37.9277C22.886 38.0542 22.7712 38.1713 22.6469 38.2777Z" fill="white"/>
<path d="M2.40384 12.8738L0.0113379 26.4176C-0.0487231 26.7576 0.178213 27.0819 0.518213 27.142L2.36509 27.4682C2.70509 27.5283 3.0294 27.3013 3.08946 26.9613L5.48196 13.4176C5.54203 13.0776 5.31509 12.7533 4.97509 12.6932L3.12821 12.367C2.78821 12.3069 2.4639 12.5338 2.40384 12.8738Z" fill="white"/>
<path d="M32.75 28.2648L26.5738 24.1767C25.3292 24.4381 24.0364 24.3492 22.8394 23.9198C21.3275 23.3828 20.0696 22.3022 19.3106 20.8886L17.3063 21.2961L16.5225 22.4836C16.0644 23.1739 15.3512 23.6544 14.5394 23.8196C13.7275 23.9848 12.8833 23.8213 12.1919 23.3648C11.6395 22.9984 11.2551 22.4277 11.1229 21.7781C10.9907 21.1285 11.1216 20.453 11.4869 19.8998L13.6969 16.5623C14.0337 16.0518 14.5135 15.6518 15.0763 15.4123L18.4025 13.9942C17.4468 13.5916 16.3982 13.4618 15.3731 13.6192L8.31687 14.698L6.57188 14.3905L4.375 26.8336L4.89125 26.9242C5.10528 27.3998 5.36438 27.8537 5.665 28.2798C5.82596 27.9957 6.03536 27.7419 6.28375 27.5298L9.15875 25.1186C9.63187 24.7185 10.2242 24.4865 10.8432 24.4588C11.4621 24.431 12.0728 24.6091 12.5798 24.9653C13.0868 25.3214 13.4616 25.8354 13.6455 26.4271C13.8294 27.0188 13.8121 27.6547 13.5962 28.2355C14.3194 28.3095 14.9852 28.6626 15.452 29.2198C15.9189 29.777 16.15 30.4943 16.0962 31.2192C16.4791 31.148 16.8727 31.1578 17.2516 31.248C17.6304 31.3382 17.9862 31.5068 18.2959 31.7429C18.6056 31.9791 18.8623 32.2775 19.0496 32.619C19.2369 32.9605 19.3505 33.3374 19.3831 33.7255C19.8326 33.4472 20.3517 33.3021 20.8803 33.3071C21.4089 33.312 21.9252 33.4668 22.3693 33.7534C22.8135 34.0401 23.1672 34.4468 23.3895 34.9264C23.6117 35.406 23.6934 35.9388 23.625 36.463L24.1162 36.7873C24.4618 37.0119 24.882 37.0908 25.2855 37.0069C25.689 36.9231 26.043 36.6833 26.2704 36.3397C26.4979 35.9961 26.5804 35.5765 26.5001 35.1723C26.4197 34.7682 26.1829 34.4121 25.8413 34.1817L21.9319 31.5942C21.8587 31.5513 21.795 31.4939 21.7447 31.4256C21.6944 31.3572 21.6586 31.2793 21.6394 31.1967C21.6202 31.1141 21.618 31.0284 21.6329 30.9448C21.6479 30.8613 21.6797 30.7817 21.7265 30.7109C21.7732 30.6401 21.8339 30.5795 21.9048 30.5329C21.9757 30.4863 22.0553 30.4546 22.1389 30.4398C22.2224 30.4249 22.3081 30.4273 22.3907 30.4466C22.4733 30.466 22.5511 30.5019 22.6194 30.5523L27.5706 33.8292C27.7417 33.9446 27.9339 34.0249 28.1361 34.0656C28.3384 34.1063 28.5467 34.1065 28.7491 34.0663C28.9514 34.026 29.1438 33.9461 29.3151 33.8311C29.4864 33.7161 29.6333 33.5684 29.7472 33.3963C29.8611 33.2243 29.9397 33.0314 29.9787 32.8288C30.0177 32.6262 30.0161 32.4179 29.9741 32.2159C29.9321 32.0139 29.8506 31.8222 29.7341 31.6519C29.6177 31.4816 29.4686 31.336 29.2956 31.2236L24.3438 27.9461C24.2713 27.9028 24.2084 27.8452 24.1588 27.777C24.1092 27.7087 24.074 27.6311 24.0552 27.5488C24.0364 27.4665 24.0345 27.3813 24.0495 27.2982C24.0646 27.2152 24.0963 27.136 24.1427 27.0656C24.1892 26.9951 24.2495 26.9348 24.3199 26.8883C24.3903 26.8417 24.4694 26.8099 24.5524 26.7948C24.6354 26.7797 24.7207 26.7815 24.803 26.8002C24.8853 26.8189 24.9629 26.8541 25.0312 26.9036L31.0244 30.8711C31.37 31.0998 31.7923 31.1819 32.1984 31.0993C32.6046 31.0167 32.9613 30.7761 33.19 30.4305C33.4187 30.0849 33.5008 29.6625 33.4182 29.2564C33.3356 28.8503 33.095 28.4936 32.7494 28.2648H32.75Z" fill="white"/>
<path d="M36.8905 12.3526L35.0436 12.6788C34.7036 12.7389 34.4767 13.0632 34.5367 13.4032L36.9292 26.947C36.9893 27.287 37.3136 27.5139 37.6536 27.4538L39.5005 27.1276C39.8405 27.0675 40.0674 26.7432 40.0074 26.4032L37.6149 12.8595C37.5548 12.5195 37.2305 12.2925 36.8905 12.3526Z" fill="white"/>
<path d="M31.6825 14.695L24.625 13.6163C23.5903 13.4582 22.5321 13.592 21.5693 14.0025L15.5668 16.5625C15.2297 16.7061 14.9419 16.9451 14.7387 17.25L12.5312 20.5869C12.4406 20.7238 12.3778 20.8772 12.3465 21.0383C12.3151 21.1995 12.3158 21.3653 12.3486 21.5261C12.3813 21.687 12.4454 21.8399 12.5372 21.976C12.6291 22.1121 12.7468 22.2288 12.8837 22.3194C13.2984 22.5937 13.805 22.6922 14.2923 22.593C14.7795 22.4939 15.2074 22.2052 15.4818 21.7906L16.5518 20.1744L19.5368 19.5669C19.6732 19.5374 19.8156 19.5552 19.9405 19.6173C20.0654 19.6795 20.1655 19.7822 20.2243 19.9088C20.5081 20.5655 20.9247 21.1564 21.4479 21.6444C21.971 22.1324 22.5895 22.5069 23.2643 22.7444C24.4036 23.1527 25.6442 23.1828 26.8018 22.83C27.3045 22.6762 27.7829 22.4523 28.2231 22.165V22.1613L28.75 21.8231C28.8188 21.7784 28.8957 21.7477 28.9764 21.7327C29.0571 21.7177 29.14 21.7187 29.2203 21.7358C29.3006 21.7528 29.3767 21.7855 29.4444 21.8319C29.5121 21.8784 29.5699 21.9377 29.6146 22.0066C29.6594 22.0754 29.6901 22.1523 29.7051 22.233C29.7201 22.3137 29.719 22.3966 29.702 22.4769C29.685 22.5572 29.6523 22.6333 29.6058 22.701C29.5594 22.7687 29.5 22.8265 29.4312 22.8713L28.9068 23.2119C28.641 23.3844 28.3637 23.5385 28.0768 23.6731L33.44 27.2231C33.827 27.4829 34.1424 27.8361 34.3568 28.25C34.6475 27.8335 34.8985 27.3907 35.1068 26.9275L35.625 26.8338L33.4281 14.3875L31.6825 14.695Z" fill="white"/>
</g>
<defs>
<clipPath id="clip0_626_111">
<rect width="40" height="40" fill="white"/>
</clipPath>
</defs>
</svg>
