<svg width="40" height="40" viewBox="0 0 40 40" fill="none" xmlns="http://www.w3.org/2000/svg">
<path d="M5.32375 11.6452C4.63375 11.6077 4.105 11.019 4.1425 10.329L4.19125 9.41273C4.3025 7.35648 5.03625 5.41023 6.28875 3.81148C6.7525 3.21898 7.6475 3.19273 8.16875 3.73398C8.6 4.18273 8.6275 4.87523 8.245 5.36773C7.315 6.56273 6.77 8.01273 6.68875 9.54773L6.64 10.4627C6.6025 11.1527 6.01375 11.6815 5.32375 11.644V11.6452Z" fill="#FF403A"/>
<path d="M21.76 36.9435C20.7037 37.6848 19.2962 37.6848 18.2387 36.9435L12.2837 32.7698C11.7187 32.3735 11.5812 31.5935 11.9775 31.0285C12.3737 30.4623 13.1537 30.3248 13.7187 30.721L19.9987 35.1235L26.2787 30.721C26.8437 30.3248 27.6237 30.4623 28.02 31.0273C28.4162 31.5935 28.2787 32.3735 27.7137 32.7698L21.7587 36.9435H21.76Z" fill="#FF403A"/>
<path d="M21.25 36.5037H18.75V17.9824C18.75 17.2924 19.31 16.7324 20 16.7324C20.69 16.7324 21.25 17.2924 21.25 17.9824V36.5037Z" fill="#FF403A"/>
<path d="M30.9175 27.6327H26.2538C25.5638 27.6327 25.0038 27.0727 25.0038 26.3827C25.0038 25.6927 25.5638 25.1327 26.2538 25.1327H30.9675C33.6075 25.1327 35.9688 23.2077 36.2263 20.5802C36.52 17.5665 34.1488 15.019 31.1938 15.019C29.5813 15.019 28.3075 13.6727 28.4225 12.064C28.5863 9.76896 27.8975 7.46396 26.0825 6.04771C19.1988 0.677715 11.4475 5.54896 11.385 12.1865C11.3638 14.3352 9.57125 16.079 7.41 16.024C5.3725 15.9727 3.75125 17.7452 3.75125 19.7827V20.579C3.75125 23.094 5.79 25.1327 8.305 25.1327H13.7475C14.4375 25.1327 14.9975 25.6927 14.9975 26.3827C14.9975 27.0727 14.4375 27.6327 13.7475 27.6327H8.30375C4.4075 27.6327 1.25 24.4752 1.25 20.579V19.7827C1.25 16.334 4.05625 13.5265 7.50625 13.5252C8.26625 13.5252 8.87375 12.8627 8.885 12.104C8.9725 6.11521 13.9013 1.25146 19.8988 1.25146C25.9738 1.25146 30.915 6.19271 30.9138 12.2665C30.9138 12.4065 31.0275 12.5202 31.1688 12.5202C35.6625 12.5202 39.2338 16.4165 38.6963 20.9865C38.2438 24.8352 34.7913 27.6327 30.9175 27.6327Z" fill="#FF403A"/>
<path d="M7.40869 16.0238L31.5137 15.0312L29.4724 12.2937L29.3312 11.1175C28.7399 6.2 24.5674 2.5 19.6149 2.5C14.4912 2.5 10.2349 6.45125 9.85619 11.5612L9.74869 13.0075L7.40994 16.0225L7.40869 16.0238Z" fill="#FF403A"/>
</svg>
