<svg width="40" height="40" viewBox="0 0 40 40" fill="none" xmlns="http://www.w3.org/2000/svg">
<path d="M36.8141 36.333C36.8439 36.2311 36.8589 36.1255 36.8588 36.0194L36.825 24.8747C36.8262 24.7532 36.8032 24.6328 36.7571 24.5204C36.711 24.408 36.6429 24.3061 36.5568 24.2204C36.4706 24.1348 36.3682 24.0674 36.2556 24.022C36.1429 23.9766 36.0223 23.9543 35.9009 23.9563C35.7799 23.9567 35.6601 23.9809 35.5485 24.0275C35.4368 24.0742 35.3354 24.1424 35.2501 24.2282C35.1648 24.314 35.0972 24.4158 35.0513 24.5278C35.0053 24.6397 34.9818 24.7596 34.9822 24.8807L35.0094 33.7959L22.0349 20.6211C21.8634 20.447 21.6297 20.3481 21.3853 20.3462C21.1409 20.3444 20.9058 20.4397 20.7317 20.6112C20.5575 20.7827 20.4587 21.0163 20.4568 21.2607C20.455 21.5051 20.5503 21.7402 20.7218 21.9144L33.7081 35.1012L24.7693 34.9337C24.5272 34.9326 24.2943 35.0269 24.1211 35.1962C23.9479 35.3655 23.8483 35.5961 23.8438 35.8383C23.8393 36.0804 23.9303 36.3146 24.0971 36.4902C24.2639 36.6657 24.4931 36.7686 24.7352 36.7765L35.9204 36.9858C36.1201 36.9889 36.3153 36.9268 36.4766 36.809C36.6378 36.6912 36.7563 36.5241 36.8141 36.333Z" fill="#427EF3"/>
<path d="M2.86766 3.08043C2.81929 3.19502 2.79468 3.31822 2.7953 3.44259L2.85888 14.6341C2.86031 14.8785 2.95876 15.1123 3.13257 15.2841C3.30637 15.4559 3.5413 15.5516 3.78567 15.5501C4.03003 15.5487 4.26382 15.4502 4.4356 15.2764C4.60738 15.1026 4.70308 14.8677 4.70165 14.6233L4.65088 5.68039L17.7006 18.8817C17.8726 19.0547 18.1061 19.1523 18.35 19.1534C18.5939 19.1544 18.8283 19.0587 19.0017 18.8872C19.1752 18.7157 19.2736 18.4825 19.2754 18.2386C19.2772 17.9947 19.1822 17.76 19.0113 17.5861L5.97331 4.39658L14.8906 4.54692C15.1324 4.54702 15.3645 4.45209 15.537 4.2826C15.7094 4.1131 15.8084 3.88262 15.8125 3.64086C15.8165 3.39909 15.7254 3.1654 15.5588 2.99018C15.3922 2.81496 15.1634 2.71224 14.9217 2.70418L3.77284 2.51648C3.58201 2.50442 3.39217 2.55229 3.22988 2.6534C3.06759 2.75452 2.94094 2.90382 2.86766 3.08043Z" fill="#427EF3"/>
<path d="M37.8867 3.48107C37.8656 3.24879 37.7571 3.03317 37.5832 2.87776C37.4093 2.72234 37.1829 2.63872 36.9497 2.64377L25.6601 2.9389C25.4185 2.94902 25.1906 3.05372 25.0255 3.23041C24.8604 3.4071 24.7715 3.6416 24.7778 3.88332C24.7841 4.12504 24.8851 4.35459 25.0592 4.52243C25.2333 4.69027 25.4663 4.78295 25.7081 4.78046L34.7164 4.54509L21.5418 17.8622C21.3699 18.0359 21.2742 18.2708 21.2755 18.5151C21.2769 18.7595 21.3752 18.9933 21.549 19.1651C21.7227 19.3369 21.9576 19.4327 22.2019 19.4313C22.4462 19.43 22.68 19.3316 22.8519 19.1579L36.0226 5.8447L35.9054 14.8335C35.9022 15.0779 35.9962 15.3135 36.1668 15.4885C36.3373 15.6636 36.5704 15.7637 36.8148 15.7669C37.0591 15.7701 37.2947 15.676 37.4698 15.5055C37.6448 15.335 37.745 15.1019 37.7481 14.8575C37.7348 14.5526 37.9166 3.81655 37.8867 3.48107Z" fill="#427EF3"/>
<path d="M17.9063 20.551L4.48207 33.4789L5.05914 24.2755C5.0667 24.1548 5.0504 24.0337 5.01118 23.9192C4.97195 23.8048 4.91056 23.6992 4.83052 23.6084C4.75047 23.5177 4.65334 23.4436 4.54467 23.3904C4.43599 23.3372 4.3179 23.3059 4.19714 23.2984C4.07638 23.2908 3.95531 23.3071 3.84085 23.3463C3.72639 23.3855 3.62077 23.4469 3.53003 23.527C3.4393 23.607 3.36521 23.7041 3.31201 23.8128C3.25881 23.9215 3.22754 24.0396 3.21997 24.1603L2.49534 35.719C2.48897 35.8448 2.50795 35.9705 2.55113 36.0888C2.59432 36.207 2.66084 36.3154 2.74674 36.4075C2.83264 36.4995 2.93616 36.5734 3.05116 36.6246C3.16616 36.6758 3.29029 36.7034 3.41617 36.7058C3.43828 36.7018 14.9558 36.431 14.9886 36.4359C15.231 36.4274 15.4602 36.3237 15.6266 36.1473C15.793 35.971 15.8833 35.7361 15.8777 35.4937C15.8722 35.2513 15.7714 35.0208 15.5971 34.8522C15.4228 34.6837 15.1891 34.5905 14.9466 34.5931L5.76492 34.8014L19.1846 21.8779C19.3563 21.7074 19.454 21.4763 19.4567 21.2343C19.4594 20.9924 19.3668 20.7591 19.199 20.5849C19.0311 20.4106 18.8014 20.3094 18.5596 20.3031C18.3177 20.2967 18.0831 20.3858 17.9063 20.551Z" fill="#427EF3"/>
</svg>
