<svg width="40" height="40" viewBox="0 0 40 40" fill="none" xmlns="http://www.w3.org/2000/svg">
<g clip-path="url(#clip0_603_123)">
<path fill-rule="evenodd" clip-rule="evenodd" d="M6.69117 40L0.648438 27.2352L6.20469 24.605L12.247 37.3698L6.69117 40ZM18.2905 25.0111C15.7368 22.4564 10.9114 23.1709 8.01937 25.4078L12.785 35.4752L13.3162 34.9724C13.8089 34.4949 14.4703 34.2316 15.1562 34.2397H26.9655C27.3974 34.2476 27.8256 34.1585 28.2185 33.9788C28.6113 33.7992 28.9589 33.5336 29.2354 33.2017L39.1191 21.7628C39.2143 21.6525 39.2827 21.5218 39.3191 21.3808C39.3554 21.2397 39.3587 21.0922 39.3287 20.9497C39.2987 20.8071 39.2363 20.6734 39.1462 20.559C39.056 20.4446 38.9407 20.3525 38.8092 20.2899C37.6998 19.7616 35.9398 19.7541 35.0298 20.6635L29.4074 26.2865C29.4581 26.5095 29.4839 26.7375 29.4845 26.9662C29.4836 27.7786 29.1606 28.5575 28.5861 29.1319C28.0117 29.7063 27.2328 30.0294 26.4204 30.0302H19.7969C19.6249 30.0302 19.46 29.9619 19.3384 29.8403C19.2168 29.7187 19.1484 29.5538 19.1484 29.3818C19.1484 29.2098 19.2168 29.0449 19.3384 28.9233C19.46 28.8017 19.6249 28.7334 19.7969 28.7334H26.4208C26.6537 28.7349 26.8847 28.6904 27.1003 28.6023C27.316 28.5142 27.5121 28.3844 27.6774 28.2202C27.8426 28.056 27.9738 27.8608 28.0633 27.6457C28.1528 27.4307 28.1989 27.2 28.1989 26.9671C28.1989 26.7341 28.1528 26.5035 28.0633 26.2884C27.9738 26.0733 27.8426 25.8781 27.6774 25.7139C27.5121 25.5498 27.316 25.4199 27.1003 25.3318C26.8847 25.2438 26.6537 25.1992 26.4208 25.2008H18.7497C18.5777 25.2006 18.4123 25.1326 18.2905 25.0111ZM34.8191 4.25086C35.033 4.46426 35.165 4.74617 35.1919 5.04716C35.2188 5.34815 35.1389 5.649 34.9662 5.89695L34.1923 7.01024C34.4114 7.43862 34.5962 7.88368 34.7449 8.34125L36.0788 8.58164C36.376 8.63498 36.645 8.79116 36.8387 9.02284C37.0324 9.25452 37.1384 9.54694 37.1382 9.84891V12.5816C37.1385 12.8836 37.0325 13.1761 36.8388 13.4078C36.6452 13.6396 36.3761 13.7957 36.0788 13.849L34.7449 14.0894C34.5962 14.5471 34.4114 14.9924 34.1923 15.421L34.9662 16.5337C35.1389 16.7815 35.2188 17.0823 35.1919 17.3832C35.165 17.6841 35.033 17.9659 34.8191 18.1792L32.8873 20.112C32.6738 20.3258 32.3919 20.4576 32.091 20.4845C31.7901 20.5114 31.4893 20.4316 31.2413 20.2591L30.128 19.4853C29.6995 19.7038 29.2544 19.8882 28.7969 20.0367L28.5565 21.3707C28.5033 21.6681 28.3471 21.9372 28.1154 22.131C27.8837 22.3248 27.5911 22.4309 27.2891 22.4307H24.5565C24.2544 22.431 23.9618 22.325 23.73 22.1312C23.4983 21.9373 23.3422 21.6681 23.2891 21.3707L23.0492 20.0367C22.5913 19.8883 22.1459 19.7039 21.717 19.4853L20.6044 20.2591C20.3563 20.4316 20.0555 20.5114 19.7546 20.4845C19.4536 20.4576 19.1718 20.3258 18.9582 20.112L17.0254 18.1792C16.8118 17.9657 16.68 17.6839 16.6532 17.3831C16.6264 17.0822 16.7063 16.7816 16.8788 16.5337L17.6523 15.421C17.4343 14.9921 17.2499 14.5469 17.1009 14.0894L15.7675 13.849C15.4701 13.7959 15.2009 13.6397 15.0071 13.408C14.8133 13.1763 14.7073 12.8837 14.7076 12.5816V9.84891C14.7074 9.54686 14.8135 9.25437 15.0073 9.02267C15.201 8.79098 15.4702 8.63485 15.7675 8.58164L17.1009 8.34125C17.2498 7.88393 17.4342 7.43892 17.6523 7.01024L16.8788 5.89695C16.7062 5.64892 16.6264 5.34803 16.6534 5.04705C16.6804 4.74606 16.8125 4.46419 17.0266 4.25086L18.9582 2.31914C19.1716 2.10528 19.4534 1.97324 19.7543 1.94611C20.0553 1.91897 20.3561 1.99847 20.6044 2.1707L21.717 2.9457C22.1457 2.7263 22.5911 2.54151 23.0492 2.39313L23.2891 1.05977C23.3422 0.7624 23.4984 0.493235 23.7301 0.299461C23.9618 0.105688 24.2544 -0.000327919 24.5565 7.61964e-07H27.2891C27.5911 -0.000180055 27.8836 0.10591 28.1153 0.299692C28.347 0.493474 28.5032 0.762595 28.5564 1.05992L28.7969 2.39328C29.2545 2.54176 29.6996 2.72654 30.1279 2.94586L31.2412 2.17203C31.4891 1.99932 31.79 1.91941 32.091 1.94631C32.3919 1.97321 32.6739 2.1052 32.8873 2.31914L34.8191 4.25086ZM25.9229 5.80195C24.8523 5.80195 23.8057 6.11942 22.9155 6.71422C22.0253 7.30902 21.3314 8.15443 20.9217 9.14355C20.5119 10.1327 20.4047 11.2211 20.6135 12.2711C20.8223 13.3212 21.3378 14.2858 22.0948 15.0429C22.8518 15.8 23.8163 16.3156 24.8664 16.5246C25.9164 16.7335 27.0048 16.6264 27.994 16.2168C28.9832 15.8072 29.8287 15.1135 30.4236 14.2233C31.0185 13.3332 31.3361 12.2866 31.3363 11.216C31.3348 9.78069 30.764 8.40456 29.7491 7.38957C28.7343 6.37457 27.3582 5.80361 25.9229 5.80195ZM25.9229 15.3313C26.737 15.3313 27.5328 15.0899 28.2097 14.6376C28.8865 14.1853 29.4141 13.5425 29.7256 12.7903C30.0371 12.0382 30.1186 11.2106 29.9598 10.4122C29.8009 9.61375 29.4089 8.88035 28.8332 8.30474C28.2575 7.72913 27.5241 7.33716 26.7256 7.1784C25.9272 7.01964 25.0996 7.10123 24.3475 7.41283C23.5954 7.72444 22.9526 8.25207 22.5004 8.92901C22.0482 9.60595 21.8069 10.4018 21.807 11.2159C21.8082 12.307 22.2423 13.3532 23.0139 14.1247C23.7855 14.8963 24.8317 15.3302 25.9229 15.3313Z" fill="#77B84D"/>
</g>
<defs>
<clipPath id="clip0_603_123">
<rect width="40" height="40" fill="white"/>
</clipPath>
</defs>
</svg>
